<svg width="228" height="71" viewBox="0 0 228 71" fill="none" xmlns="http://www.w3.org/2000/svg">
<path d="M132.309 31.5845V26.5597C132.309 25.5702 131.541 24.7651 130.596 24.7651H121.346C120.4 24.7651 119.633 23.9617 119.633 22.9706V14.895L115.289 11.4817C114.417 10.797 113.2 10.797 112.329 11.4817L107.985 14.895V22.9706C107.985 23.9617 107.218 24.7651 106.272 24.7651H97.0213C96.0768 24.7651 95.3083 25.5702 95.3083 26.5597V40.5574C95.3083 41.547 96.0768 42.352 97.0213 42.352H112.01V37.5066C112.01 36.5155 112.777 35.7121 113.723 35.7121C114.669 35.7121 115.436 36.5155 115.436 37.5066V42.352H130.596C131.541 42.352 132.309 41.547 132.309 40.5574C132.309 39.5663 133.076 38.7628 134.022 38.7628C134.968 38.7628 135.735 39.5663 135.735 40.5574C135.735 43.526 133.43 45.9412 130.596 45.9412H97.0213C94.1877 45.9412 91.8823 43.526 91.8823 40.5574V26.5597C91.8823 23.5911 94.1877 21.176 97.0213 21.176H104.559V17.5868C103.802 18.1814 102.728 18.0209 102.16 17.2279C101.593 16.435 101.746 15.3101 102.503 14.7155L110.273 8.61036C110.832 8.1715 111.45 7.85153 112.096 7.6482V1.79456C112.096 1.2054 112.372 0.653569 112.835 0.318521C113.297 -0.0166162 113.887 -0.0924371 114.414 0.115554L118.953 1.91013C119.623 2.17492 120.065 2.84843 120.061 3.59856C120.057 4.34869 119.609 5.01726 118.936 5.27469L115.522 6.58168V7.6482C116.167 7.85153 116.786 8.1715 117.344 8.61036L125.115 14.7155C125.871 15.3101 126.025 16.435 125.457 17.2279C125.121 17.6979 124.606 17.9458 124.086 17.9458C123.728 17.9458 123.367 17.8289 123.059 17.5868V21.176H130.596C133.43 21.176 135.735 23.5911 135.735 26.5597V31.5845C135.735 32.5757 134.968 33.3791 134.022 33.3791C133.076 33.3791 132.309 32.5757 132.309 31.5845ZM116.378 18.5739C116.378 17.0871 115.228 15.882 113.809 15.882C112.39 15.882 111.239 17.0871 111.239 18.5739C111.239 20.0606 112.39 21.2657 113.809 21.2657C115.228 21.2657 116.378 20.0606 116.378 18.5739ZM128.883 28.5338H125.457V32.1229H128.883V28.5338ZM125.457 39.3012H128.883V35.7121H125.457V39.3012ZM121.946 28.5338H118.52V32.1229H121.946V28.5338ZM118.52 39.3012H121.946V35.7121H118.52V39.3012ZM102.16 28.5338H98.7343V32.1229H102.16V28.5338ZM98.7343 39.3012H102.16V35.7121H98.7343V39.3012ZM109.012 28.5338H105.586V32.1229H109.012V28.5338ZM105.586 39.3012H109.012V35.7121H105.586V39.3012ZM112.096 32.1229H115.522V28.5338H112.096V32.1229Z" fill="#161616"/>
<path d="M6.39104 54.3174C7.08359 54.3174 7.67828 54.3407 8.17511 54.3874C8.687 54.4185 9.15372 54.4729 9.57527 54.5507C9.99682 54.6129 10.4334 54.7063 10.8851 54.8307L10.6367 57.0006C10.17 56.9695 9.73335 56.9462 9.32686 56.9306C8.92036 56.8995 8.48375 56.8762 8.01703 56.8606C7.56537 56.8451 7.02337 56.8373 6.39104 56.8373C5.51783 56.8373 4.8328 57.0162 4.33597 57.3739C3.83914 57.7317 3.48534 58.3305 3.27456 59.1705C3.07884 60.0105 2.98098 61.1693 2.98098 62.647C2.98098 64.1247 3.07884 65.2835 3.27456 66.1235C3.48534 66.9635 3.83914 67.5623 4.33597 67.9201C4.8328 68.2778 5.51783 68.4567 6.39104 68.4567C7.39976 68.4567 8.24286 68.4412 8.92036 68.4101C9.61291 68.3634 10.2904 68.3012 10.9528 68.2234L11.2013 70.37C10.5087 70.5877 9.8011 70.7433 9.07844 70.8366C8.35578 70.9299 7.45998 70.9766 6.39104 70.9766C4.82527 70.9766 3.57567 70.7122 2.64223 70.1833C1.70879 69.6389 1.0313 68.76 0.609746 67.5468C0.203249 66.3335 0 64.7002 0 62.647C0 60.5938 0.203249 58.9605 0.609746 57.7472C1.0313 56.534 1.70879 55.6629 2.64223 55.134C3.57567 54.5896 4.82527 54.3174 6.39104 54.3174Z" fill="#161616"/>
<path d="M25.5659 54.5974V70.6966H22.743V56.744H16.5101V70.6966H13.6646V54.5974H25.5659Z" fill="#161616"/>
<path d="M34.8164 54.3874C36.1714 54.3874 37.2403 54.5352 38.0232 54.8307C38.8211 55.1262 39.3857 55.6551 39.7169 56.4173C40.0482 57.1639 40.2138 58.2061 40.2138 59.5438C40.2138 60.8971 40.0482 61.947 39.7169 62.6937C39.4008 63.4403 38.8663 63.9614 38.1135 64.2569C37.3758 64.5525 36.3897 64.7002 35.1551 64.7002C34.583 64.7002 34.0185 64.6847 33.4614 64.6536C32.9044 64.6069 32.3849 64.5602 31.9032 64.5136V70.6966H29.0803V54.5974C29.6825 54.5352 30.2471 54.4885 30.774 54.4574C31.3009 54.4263 31.8806 54.4107 32.5129 54.4107C33.1452 54.3952 33.9131 54.3874 34.8164 54.3874ZM34.7486 56.674C34.2217 56.674 33.7173 56.674 33.2356 56.674C32.7538 56.674 32.3097 56.6817 31.9032 56.6973V62.4137H34.7486C35.4111 62.4137 35.9305 62.3359 36.3069 62.1804C36.6983 62.0093 36.9693 61.7215 37.1199 61.3171C37.2855 60.8971 37.3683 60.306 37.3683 59.5438C37.3683 58.7816 37.2855 58.1983 37.1199 57.7939C36.9693 57.3739 36.6983 57.0862 36.3069 56.9306C35.9305 56.7595 35.4111 56.674 34.7486 56.674Z" fill="#161616"/>
<path d="M48.7141 54.2941C50.3099 54.2941 51.5821 54.5507 52.5306 55.064C53.4791 55.5618 54.1566 56.4173 54.5631 57.6306C54.9847 58.8439 55.1954 60.516 55.1954 62.647C55.1954 64.778 54.9847 66.4502 54.5631 67.6634C54.1566 68.8767 53.4791 69.74 52.5306 70.2533C51.5821 70.7511 50.3099 70.9999 48.7141 70.9999C47.1332 70.9999 45.8686 70.7511 44.9201 70.2533C43.9716 69.74 43.2866 68.8767 42.865 67.6634C42.4585 66.4502 42.2553 64.778 42.2553 62.647C42.2553 60.516 42.4585 58.8439 42.865 57.6306C43.2866 56.4173 43.9716 55.5618 44.9201 55.064C45.8686 54.5507 47.1332 54.2941 48.7141 54.2941ZM48.7141 56.674C47.8258 56.674 47.1257 56.8528 46.6138 57.2106C46.117 57.5684 45.7632 58.1828 45.5524 59.0538C45.3416 59.9249 45.2362 61.1226 45.2362 62.647C45.2362 64.1714 45.3416 65.3691 45.5524 66.2402C45.7632 67.1112 46.117 67.7257 46.6138 68.0834C47.1257 68.4412 47.8258 68.6201 48.7141 68.6201C49.6174 68.6201 50.3175 68.4412 50.8143 68.0834C51.3262 67.7257 51.6875 67.1112 51.8983 66.2402C52.1091 65.3691 52.2144 64.1714 52.2144 62.647C52.2144 61.1226 52.1091 59.9249 51.8983 59.0538C51.6875 58.1828 51.3262 57.5684 50.8143 57.2106C50.3175 56.8528 49.6174 56.674 48.7141 56.674Z" fill="#161616"/>
<path d="M73.5716 54.5974C74.2792 54.5974 74.6406 54.9707 74.6556 55.7173L75.2654 70.6966H72.578L72.0585 56.9073H71.6069L68.6936 67.7101C68.5732 68.3478 68.1893 68.6667 67.5419 68.6667H65.5546C64.9222 68.6667 64.5308 68.3478 64.3803 67.7101L61.4444 56.9073H61.0379L60.5411 70.6966H57.8537L58.4409 55.7173C58.471 54.9707 58.8323 54.5974 59.5249 54.5974H62.3478C62.95 54.5974 63.3264 54.9163 63.4769 55.554L65.8707 64.3736C65.9761 64.7469 66.0665 65.1202 66.1417 65.4935C66.217 65.8669 66.2923 66.2402 66.3676 66.6135H66.7063C66.7967 66.2402 66.8795 65.8669 66.9547 65.4935C67.03 65.1202 67.1128 64.7391 67.2032 64.3503L69.597 55.554C69.7174 54.9163 70.1013 54.5974 70.7487 54.5974H73.5716Z" fill="#161616"/>
<path d="M84.3973 54.2941C85.9931 54.2941 87.2653 54.5507 88.2138 55.064C89.1623 55.5618 89.8398 56.4173 90.2463 57.6306C90.6679 58.8439 90.8786 60.516 90.8786 62.647C90.8786 64.778 90.6679 66.4502 90.2463 67.6634C89.8398 68.8767 89.1623 69.74 88.2138 70.2533C87.2653 70.7511 85.9931 70.9999 84.3973 70.9999C82.8164 70.9999 81.5518 70.7511 80.6033 70.2533C79.6548 69.74 78.9698 68.8767 78.5482 67.6634C78.1417 66.4502 77.9385 64.778 77.9385 62.647C77.9385 60.516 78.1417 58.8439 78.5482 57.6306C78.9698 56.4173 79.6548 55.5618 80.6033 55.064C81.5518 54.5507 82.8164 54.2941 84.3973 54.2941ZM84.3973 56.674C83.509 56.674 82.8089 56.8528 82.297 57.2106C81.8002 57.5684 81.4464 58.1828 81.2356 59.0538C81.0248 59.9249 80.9194 61.1226 80.9194 62.647C80.9194 64.1714 81.0248 65.3691 81.2356 66.2402C81.4464 67.1112 81.8002 67.7257 82.297 68.0834C82.8089 68.4412 83.509 68.6201 84.3973 68.6201C85.3006 68.6201 86.0007 68.4412 86.4975 68.0834C87.0094 67.7257 87.3707 67.1112 87.5815 66.2402C87.7923 65.3691 87.8976 64.1714 87.8976 62.647C87.8976 61.1226 87.7923 59.9249 87.5815 59.0538C87.3707 58.1828 87.0094 57.5684 86.4975 57.2106C86.0007 56.8528 85.3006 56.674 84.3973 56.674Z" fill="#161616"/>
<path d="M95.7317 54.5974C96.1984 56.0129 96.6125 57.2184 96.9738 58.2139C97.3351 59.2094 97.7341 59.9638 98.1707 60.4771C98.6224 60.9904 99.1945 61.2471 99.887 61.2471H101.197C101.076 60.6404 101.016 60.0105 101.016 59.3572V54.5974H103.726V59.3572C103.726 59.6838 103.711 60.0027 103.681 60.3138C103.651 60.6249 103.613 60.936 103.568 61.2471H104.765C105.458 61.2471 106.022 60.9904 106.459 60.4771C106.91 59.9638 107.317 59.2094 107.678 58.2139C108.055 57.2184 108.476 56.0129 108.943 54.5974H111.834C111.442 55.7951 111.096 56.8528 110.795 57.7706C110.494 58.6883 110.17 59.466 109.824 60.1038C109.492 60.726 109.093 61.216 108.627 61.5737C108.16 61.9315 107.565 62.157 106.843 62.2504V62.3437C107.61 62.437 108.243 62.6626 108.74 63.0203C109.236 63.3625 109.666 63.8681 110.027 64.5369C110.388 65.2058 110.734 66.0457 111.066 67.0568C111.412 68.0679 111.803 69.2811 112.24 70.6966H109.282C108.845 69.39 108.469 68.2778 108.152 67.3601C107.836 66.4268 107.52 65.6724 107.204 65.0969C106.903 64.5058 106.564 64.0703 106.188 63.7903C105.811 63.5103 105.337 63.3703 104.765 63.3703H103.568C103.613 63.6658 103.651 63.9536 103.681 64.2336C103.711 64.498 103.726 64.7625 103.726 65.0269V70.6966H101.016V65.0269C101.016 64.7625 101.031 64.498 101.061 64.2336C101.107 63.9536 101.152 63.6658 101.197 63.3703H99.887C99.33 63.3703 98.8633 63.5103 98.4869 63.7903C98.1105 64.0703 97.7717 64.5058 97.4706 65.0969C97.1695 65.6724 96.8533 66.4268 96.5221 67.3601C96.206 68.2778 95.8296 69.39 95.393 70.6966H92.4346C92.8712 69.2811 93.2551 68.0679 93.5863 67.0568C93.9326 66.0457 94.2864 65.2058 94.6477 64.5369C95.0091 63.8681 95.4381 63.3625 95.935 63.0203C96.4318 62.6626 97.0566 62.437 97.8094 62.3437V62.2504C97.1018 62.157 96.5071 61.9315 96.0253 61.5737C95.5586 61.216 95.1596 60.726 94.8284 60.1038C94.4972 59.466 94.181 58.6883 93.8799 57.7706C93.5788 56.8528 93.24 55.7951 92.8637 54.5974H95.7317Z" fill="#161616"/>
<path d="M117.385 54.5974V60.9671H123.618V54.5974H126.44V70.6966H123.618V63.2536H117.385V70.6966H114.539V54.5974H117.385Z" fill="#161616"/>
<path d="M136.82 54.5974C137.06 54.5974 137.271 54.6674 137.452 54.8074C137.633 54.9474 137.761 55.134 137.836 55.3673L142.556 70.6966H139.665L138.333 66.1002H132.529L131.219 70.6966H128.328L133.048 55.3673C133.108 55.134 133.229 54.9474 133.409 54.8074C133.605 54.6674 133.824 54.5974 134.064 54.5974H136.82ZM134.764 58.2839L133.184 63.8136H137.678L136.097 58.2839C136.037 58.0506 135.976 57.8095 135.916 57.5606C135.856 57.2961 135.803 57.0473 135.758 56.8139H135.126C135.081 57.0473 135.028 57.2961 134.968 57.5606C134.908 57.8095 134.84 58.0506 134.764 58.2839Z" fill="#161616"/>
<path d="M152.162 54.5974V68.5501H157.04V54.5974H159.773V68.5501H164.65V54.5974H167.428V70.6966H149.384V54.5974H152.162Z" fill="#161616"/>
<path d="M173.776 54.5974V59.3572C173.776 60.0105 173.723 60.6404 173.618 61.2471H174.95C175.793 61.2471 176.463 60.9904 176.96 60.4771C177.457 59.9638 177.886 59.2094 178.247 58.2139C178.609 57.2184 179.008 56.0129 179.444 54.5974H182.312C181.921 55.8262 181.567 56.9073 181.251 57.8406C180.935 58.7583 180.604 59.5283 180.257 60.1505C179.926 60.7726 179.527 61.2548 179.06 61.5971C178.594 61.9393 178.006 62.157 177.299 62.2504V62.3437C178.052 62.437 178.676 62.6626 179.173 63.0203C179.67 63.3625 180.099 63.8681 180.46 64.5369C180.822 65.2058 181.176 66.0457 181.522 67.0568C181.868 68.0679 182.275 69.2811 182.741 70.6966H179.76C179.354 69.39 178.993 68.2778 178.676 67.3601C178.375 66.4268 178.059 65.6724 177.728 65.0969C177.412 64.5058 177.035 64.0703 176.599 63.7903C176.177 63.5103 175.635 63.3703 174.973 63.3703H173.618C173.663 63.6658 173.701 63.9536 173.731 64.2336C173.761 64.498 173.776 64.7625 173.776 65.0269V70.6966H170.953V54.5974H173.776Z" fill="#161616"/>
<path d="M190.719 54.2941C192.315 54.2941 193.587 54.5507 194.536 55.064C195.484 55.5618 196.162 56.4173 196.568 57.6306C196.99 58.8439 197.2 60.516 197.2 62.647C197.2 64.778 196.99 66.4502 196.568 67.6634C196.162 68.8767 195.484 69.74 194.536 70.2533C193.587 70.7511 192.315 70.9999 190.719 70.9999C189.138 70.9999 187.874 70.7511 186.925 70.2533C185.977 69.74 185.292 68.8767 184.87 67.6634C184.464 66.4502 184.26 64.778 184.26 62.647C184.26 60.516 184.464 58.8439 184.87 57.6306C185.292 56.4173 185.977 55.5618 186.925 55.064C187.874 54.5507 189.138 54.2941 190.719 54.2941ZM190.719 56.674C189.831 56.674 189.131 56.8528 188.619 57.2106C188.122 57.5684 187.768 58.1828 187.557 59.0538C187.347 59.9249 187.241 61.1226 187.241 62.647C187.241 64.1714 187.347 65.3691 187.557 66.2402C187.768 67.1112 188.122 67.7257 188.619 68.0834C189.131 68.4412 189.831 68.6201 190.719 68.6201C191.622 68.6201 192.322 68.4412 192.819 68.0834C193.331 67.7257 193.693 67.1112 193.903 66.2402C194.114 65.3691 194.219 64.1714 194.219 62.647C194.219 61.1226 194.114 59.9249 193.903 59.0538C193.693 58.1828 193.331 57.5684 192.819 57.2106C192.322 56.8528 191.622 56.674 190.719 56.674Z" fill="#161616"/>
<path d="M211.516 54.5974V70.6966H208.671V56.744H206.187C205.238 56.744 204.726 57.2339 204.651 58.2139C204.516 59.7849 204.388 61.1304 204.267 62.2504C204.162 63.3703 204.026 64.3503 203.861 65.1902C203.695 66.0146 203.469 66.7613 203.183 67.4301C202.732 68.6589 202.114 69.5378 201.331 70.0667C200.549 70.5955 199.623 70.8211 198.554 70.7433L198.328 68.4801C198.825 68.3556 199.254 68.169 199.615 67.9201C199.991 67.6557 200.308 67.2279 200.564 66.6368C200.744 66.1857 200.902 65.7113 201.038 65.2135C201.173 64.7002 201.286 64.1169 201.377 63.4636C201.482 62.7948 201.58 62.0093 201.67 61.1071C201.76 60.2049 201.851 59.1238 201.941 57.8639C202.122 55.6862 203.251 54.5974 205.329 54.5974H211.516Z" fill="#161616"/>
<path d="M221.881 54.5974C222.122 54.5974 222.333 54.6674 222.514 54.8074C222.694 54.9474 222.822 55.134 222.898 55.3673L227.618 70.6966H224.727L223.394 66.1002H217.591L216.281 70.6966H213.39L218.11 55.3673C218.17 55.134 218.291 54.9474 218.471 54.8074C218.667 54.6674 218.885 54.5974 219.126 54.5974H221.881ZM219.826 58.2839L218.246 63.8136H222.74L221.159 58.2839C221.099 58.0506 221.038 57.8095 220.978 57.5606C220.918 57.2961 220.865 57.0473 220.82 56.8139H220.188C220.143 57.0473 220.09 57.2961 220.03 57.5606C219.969 57.8095 219.902 58.0506 219.826 58.2839Z" fill="#161616"/>
</svg>
