<svg width="25" height="26" viewBox="0 0 25 26" fill="none" xmlns="http://www.w3.org/2000/svg">
<g clip-path="url(#clip0)">
<path d="M17.3108 0.674194C17.369 0.674194 17.4271 0.674194 17.4886 0.674194C17.6313 2.42019 16.9584 3.72479 16.1405 4.66953C15.338 5.60776 14.2392 6.51772 12.4618 6.37965C12.3433 4.65866 13.0173 3.45082 13.8341 2.50825C14.5915 1.62981 15.9802 0.848141 17.3108 0.674194Z" fill="black"/>
<path d="M22.6912 18.8473C22.6912 18.8647 22.6912 18.8799 22.6912 18.8962C22.1917 20.3944 21.4792 21.6783 20.6097 22.8698C19.816 23.9516 18.8434 25.4073 17.1067 25.4073C15.606 25.4073 14.6092 24.4517 13.0712 24.4256C11.4443 24.3995 10.5496 25.2246 9.06208 25.4323C8.89193 25.4323 8.72177 25.4323 8.5549 25.4323C7.4626 25.2757 6.58108 24.4191 5.93887 23.6472C4.04518 21.3663 2.58182 18.4201 2.30957 14.6498C2.30957 14.2801 2.30957 13.9116 2.30957 13.5419C2.42484 10.8436 3.74877 8.64969 5.50853 7.58644C6.43727 7.02112 7.714 6.5395 9.13564 6.75476C9.74491 6.84826 10.3674 7.05482 10.913 7.25921C11.43 7.45598 12.0766 7.80496 12.6892 7.78648C13.1042 7.77452 13.5169 7.56035 13.9352 7.40923C15.1603 6.97111 16.3613 6.46883 17.9443 6.70475C19.8468 6.98959 21.1971 7.82671 22.0314 9.11826C20.422 10.1326 19.1497 11.6611 19.3671 14.2714C19.5603 16.6425 20.9523 18.0298 22.6912 18.8473Z" fill="black"/>
</g>
<defs>
<clipPath id="clip0">
<rect width="25" height="24.7581" fill="white" transform="translate(0 0.674194)"/>
</clipPath>
</defs>
</svg>
