<svg width="84" height="84" viewBox="0 0 84 84" fill="none" xmlns="http://www.w3.org/2000/svg">
<g clip-path="url(#clip0)">
<path d="M78.9306 25.3521L67.0996 50.7042L78.9306 76.0563H82.7334C83.4335 76.0563 84.001 75.4888 84.001 74.7887V26.6197C84.001 25.9197 83.4335 25.3521 82.7334 25.3521H78.9306Z" fill="#405ACC"/>
<path d="M47.0703 25.3521L63.3802 59.1549V76.0563H78.9295V25.3521H47.0703Z" fill="#4271DB"/>
<path d="M63.381 15.2113H58.3105L60.8458 70.986H68.4514V20.2817C68.4514 17.493 66.1697 15.2113 63.381 15.2113Z" fill="#405ACC"/>
<path d="M58.3096 15.2113H12.6758V65.9155H58.3096L63.38 70.986V20.2817C63.38 17.493 61.0983 15.2113 58.3096 15.2113Z" fill="#4271DB"/>
<path d="M63.381 65.9155H58.3105V70.986C58.3105 73.7864 60.5806 76.0564 63.381 76.0564C66.1814 76.0564 68.4514 73.7864 68.4514 70.986C68.4514 68.1856 66.1814 65.9155 63.381 65.9155Z" fill="#3F43BD"/>
<path d="M40.5625 24.0845C41.2626 24.0845 41.8301 23.517 41.8301 22.8169C41.8301 22.1168 41.2626 21.5493 40.5625 21.5493C39.8624 21.5493 39.2949 22.1168 39.2949 22.8169C39.2949 23.517 39.8624 24.0845 40.5625 24.0845Z" fill="#FFBA48"/>
<path d="M31.6895 26.462C32.3896 26.462 32.9571 25.8945 32.9571 25.1944C32.9571 24.4943 32.3896 23.9268 31.6895 23.9268C30.9894 23.9268 30.4219 24.4943 30.4219 25.1944C30.4219 25.8945 30.9894 26.462 31.6895 26.462Z" fill="#FFBA48"/>
<path d="M25.1934 32.9578C25.8935 32.9578 26.461 32.3902 26.461 31.6902C26.461 30.9901 25.8935 30.4225 25.1934 30.4225C24.4933 30.4225 23.9258 30.9901 23.9258 31.6902C23.9258 32.3902 24.4933 32.9578 25.1934 32.9578Z" fill="#FFBA48"/>
<path d="M22.8164 41.831C23.5165 41.831 24.084 41.2635 24.084 40.5634C24.084 39.8633 23.5165 39.2958 22.8164 39.2958C22.1164 39.2958 21.5488 39.8633 21.5488 40.5634C21.5488 41.2635 22.1164 41.831 22.8164 41.831Z" fill="#FFBA48"/>
<path d="M25.1934 50.7043C25.8935 50.7043 26.461 50.1368 26.461 49.4367C26.461 48.7366 25.8935 48.1691 25.1934 48.1691C24.4933 48.1691 23.9258 48.7366 23.9258 49.4367C23.9258 50.1368 24.4933 50.7043 25.1934 50.7043Z" fill="#FFBA48"/>
<path d="M31.6895 57.1999C32.3896 57.1999 32.9571 56.6324 32.9571 55.9323C32.9571 55.2323 32.3896 54.6647 31.6895 54.6647C30.9894 54.6647 30.4219 55.2323 30.4219 55.9323C30.4219 56.6324 30.9894 57.1999 31.6895 57.1999Z" fill="#FFBA48"/>
<path d="M40.5625 59.5774C41.2626 59.5774 41.8301 59.0099 41.8301 58.3098C41.8301 57.6098 41.2626 57.0422 40.5625 57.0422C39.8624 57.0422 39.2949 57.6098 39.2949 58.3098C39.2949 59.0099 39.8624 59.5774 40.5625 59.5774Z" fill="#FFBA48"/>
<path d="M49.4356 57.1999C50.1356 57.1999 50.7032 56.6324 50.7032 55.9323C50.7032 55.2323 50.1356 54.6647 49.4356 54.6647C48.7355 54.6647 48.168 55.2323 48.168 55.9323C48.168 56.6324 48.7355 57.1999 49.4356 57.1999Z" fill="#FFBA48"/>
<path d="M55.9317 50.7043C56.6317 50.7043 57.1993 50.1368 57.1993 49.4367C57.1993 48.7366 56.6317 48.1691 55.9317 48.1691C55.2316 48.1691 54.6641 48.7366 54.6641 49.4367C54.6641 50.1368 55.2316 50.7043 55.9317 50.7043Z" fill="#FFBA48"/>
<path d="M58.3086 41.831C59.0087 41.831 59.5762 41.2635 59.5762 40.5634C59.5762 39.8633 59.0087 39.2958 58.3086 39.2958C57.6085 39.2958 57.041 39.8633 57.041 40.5634C57.041 41.2635 57.6085 41.831 58.3086 41.831Z" fill="#FFBA48"/>
<path d="M55.9317 32.9578C56.6317 32.9578 57.1993 32.3902 57.1993 31.6902C57.1993 30.9901 56.6317 30.4225 55.9317 30.4225C55.2316 30.4225 54.6641 30.9901 54.6641 31.6902C54.6641 32.3902 55.2316 32.9578 55.9317 32.9578Z" fill="#FFBA48"/>
<path d="M49.4356 26.462C50.1356 26.462 50.7032 25.8945 50.7032 25.1944C50.7032 24.4943 50.1356 23.9268 49.4356 23.9268C48.7355 23.9268 48.168 24.4943 48.168 25.1944C48.168 25.8945 48.7355 26.462 49.4356 26.462Z" fill="#FFBA48"/>
<path d="M7.6055 72.2535H6.33789V69.7183H7.6055C9.70245 69.7183 11.4083 68.0124 11.4083 65.9155V15.2113C11.4083 13.1143 9.70245 11.4084 7.6055 11.4084H6.33789V8.87323H7.6055C11.1004 8.87323 13.9435 11.7164 13.9435 15.2113V65.9155C13.9435 69.4104 11.1004 72.2535 7.6055 72.2535Z" fill="#B6F1FB"/>
<path d="M5.07037 2.53522L2.53516 5.07043V82.7324C2.53516 83.4324 3.10271 84 3.80276 84H6.33797C7.03803 84 7.60558 83.4324 7.60558 82.7324V5.07043L5.07037 2.53522Z" fill="#CCCCCC"/>
<path d="M7.60558 0H2.53516V5.07042H7.60558C9.00569 5.07042 10.1408 3.93532 10.1408 2.53521C10.1408 1.1351 9.00569 0 7.60558 0Z" fill="#FF9A42"/>
<path d="M2.53521 5.07042C3.93537 5.07042 5.07042 3.93537 5.07042 2.53521C5.07042 1.13505 3.93537 0 2.53521 0C1.13505 0 0 1.13505 0 2.53521C0 3.93537 1.13505 5.07042 2.53521 5.07042Z" fill="#FFBA48"/>
</g>
<defs>
<clipPath id="clip0">
<rect width="84" height="84" fill="white"/>
</clipPath>
</defs>
</svg>
