<svg width="104" height="104" viewBox="0 0 104 104" fill="none" xmlns="http://www.w3.org/2000/svg">
<g clip-path="url(#clip0)">
<path d="M84.1964 39.0165H77.6489L76.3223 54.2501H84.1958C88.8634 54.2501 90.9686 56.6685 93.1971 59.2293C95.3094 61.6561 97.7035 64.4066 102.233 64.4066H103.626L103.749 63.0254C103.903 61.2421 104.001 59.7406 104.001 58.8213C104.001 47.9008 95.1169 39.0165 84.1964 39.0165Z" fill="#5D9CEC"/>
<path d="M84.1959 39.0165H78.1016C89.022 39.0165 97.9063 47.9008 97.9063 58.8213C97.9063 59.7406 97.808 61.2421 97.6548 63.0254L97.6351 63.2451C98.8967 63.9502 100.388 64.4066 102.233 64.4066H103.625L103.749 63.0254C103.902 61.2421 104 59.7406 104 58.8213C104.001 47.9008 95.1164 39.0165 84.1959 39.0165Z" fill="#4A89DC"/>
<path d="M79.626 16.2188C79.6258 16.1982 79.624 16.1781 79.6227 16.1576C79.6213 16.1269 79.6203 16.0961 79.6168 16.066C79.6144 16.0443 79.6105 16.0231 79.6071 16.0016C79.6026 15.973 79.599 15.9445 79.5931 15.9165C79.5884 15.895 79.5819 15.8739 79.5764 15.8527C79.5695 15.8257 79.5632 15.7985 79.5547 15.7723C79.5476 15.7499 79.5386 15.7284 79.5305 15.7065C79.5216 15.6823 79.5132 15.6579 79.5031 15.6344C79.4925 15.6096 79.4799 15.586 79.468 15.5621C79.4584 15.5423 79.4495 15.5222 79.4389 15.5031C79.4231 15.4739 79.405 15.4461 79.3871 15.418C79.379 15.4052 79.3719 15.3922 79.3633 15.3799C79.3402 15.3455 79.3148 15.3126 79.2888 15.2803C79.2845 15.2752 79.2811 15.2696 79.2766 15.2645C79.1543 15.1164 79.0042 14.9919 78.8336 14.8984C78.8314 14.8972 78.8295 14.8958 78.8275 14.8946C78.7922 14.8755 78.7558 14.8586 78.7188 14.8424C78.7097 14.8381 78.7009 14.8334 78.6918 14.8296C78.6617 14.817 78.6305 14.8066 78.5994 14.7959C78.5823 14.79 78.5657 14.7831 78.5484 14.7778C78.5232 14.7703 78.497 14.7646 78.4712 14.7579C78.4474 14.752 78.4237 14.7451 78.3991 14.7404C78.3761 14.7359 78.3524 14.7333 78.3288 14.7296C78.3014 14.7254 78.2744 14.7209 78.2464 14.7181C78.2423 14.7177 78.2386 14.7168 78.2346 14.7164C78.2092 14.7142 78.1842 14.7146 78.1592 14.7136C78.1403 14.713 78.1218 14.7108 78.1029 14.7108H78.0822C78.0808 14.7108 78.0792 14.7108 78.0776 14.7108H56.4685H46.924H22.549C22.5481 14.7108 22.5475 14.7108 22.5467 14.7108C21.8311 14.7108 21.2104 15.2143 21.0602 15.9126C21.0592 15.9177 21.0574 15.9228 21.0564 15.9277C21.0487 15.9659 21.0436 16.0047 21.0385 16.0435C21.0371 16.0559 21.0344 16.0676 21.0332 16.08C21.033 16.0825 21.0324 16.0847 21.0322 16.0871L16.5133 62.7253C16.5131 62.7267 16.5131 62.728 16.5129 62.7294L16.498 62.8832L16.5054 62.887C16.5076 63.7265 17.1885 64.4064 18.0286 64.4064H74.0396C74.0404 64.4064 74.041 64.4066 74.0419 64.4066C74.0928 64.4066 74.1434 64.4035 74.1934 64.3987C74.2027 64.3979 74.2119 64.3958 74.2212 64.3946C74.261 64.3899 74.3006 64.3842 74.3396 64.3765C74.3565 64.3731 74.373 64.3684 74.3896 64.3643C74.4201 64.3572 74.4505 64.3501 74.4802 64.3412C74.5005 64.3351 74.5198 64.3278 74.5395 64.3207C74.5651 64.3117 74.5907 64.303 74.6155 64.2928C74.6366 64.2841 74.6573 64.2744 74.678 64.2646C74.7006 64.2542 74.7231 64.2439 74.7449 64.2325C74.7658 64.2215 74.7859 64.2098 74.8064 64.198C74.8273 64.1856 74.8481 64.1734 74.8684 64.1602C74.8881 64.1474 74.9068 64.1342 74.9257 64.1206C74.9458 64.1064 74.9653 64.0917 74.9848 64.0765C75.0022 64.0627 75.0195 64.0481 75.0366 64.0332C75.0559 64.0166 75.0747 63.9995 75.093 63.9819C75.1085 63.967 75.1239 63.9518 75.1389 63.9362C75.1572 63.9171 75.1749 63.8976 75.1924 63.8774C75.206 63.8616 75.2194 63.8458 75.2324 63.8295C75.2492 63.8082 75.2653 63.7863 75.2811 63.7641C75.2931 63.7477 75.3047 63.731 75.3161 63.7139C75.3309 63.691 75.3451 63.6674 75.3587 63.6435C75.3691 63.6254 75.3796 63.6077 75.389 63.5892C75.4018 63.5654 75.4128 63.5409 75.4243 63.5163C75.4333 63.4966 75.4424 63.4773 75.4505 63.4572C75.4605 63.4332 75.4688 63.4086 75.4776 63.3841C75.4851 63.3623 75.493 63.3404 75.4997 63.3182C75.5064 63.2949 75.5119 63.2707 75.518 63.2465C75.5239 63.2224 75.5304 63.1984 75.535 63.1738C75.5397 63.1501 75.5426 63.1255 75.5462 63.1013C75.5497 63.0761 75.5541 63.0513 75.5566 63.0257C75.557 63.0221 75.5578 63.0186 75.558 63.015L79.6185 16.3934C79.6189 16.3894 79.6191 16.3855 79.6195 16.3815L79.6209 16.366C79.6221 16.3526 79.6215 16.3398 79.6223 16.3268C79.6244 16.2959 79.627 16.2653 79.627 16.234C79.6268 16.2289 79.626 16.2238 79.626 16.2188Z" fill="#ED5565"/>
<path d="M79.6263 16.2188C79.6261 16.1982 79.6243 16.1781 79.623 16.1576C79.6216 16.1269 79.6206 16.0961 79.6171 16.066C79.6147 16.0443 79.6108 16.0231 79.6074 16.0016C79.6029 15.973 79.5993 15.9445 79.5934 15.9165C79.5887 15.895 79.5822 15.8739 79.5767 15.8527C79.5698 15.8257 79.5635 15.7985 79.555 15.7723C79.5479 15.7499 79.5389 15.7284 79.5308 15.7065C79.5219 15.6823 79.5135 15.6579 79.5034 15.6344C79.4928 15.6096 79.4802 15.586 79.4683 15.5621C79.4587 15.5424 79.4498 15.5222 79.4392 15.5031C79.4234 15.4739 79.4053 15.4461 79.3874 15.418C79.3793 15.4052 79.3722 15.3922 79.3636 15.3799C79.3405 15.3455 79.3151 15.3126 79.2891 15.2803C79.2848 15.2752 79.2814 15.2696 79.2769 15.2645C79.1546 15.1164 79.0045 14.9919 78.8339 14.8984C78.8317 14.8972 78.8298 14.8958 78.8278 14.8946C78.7925 14.8755 78.7561 14.8586 78.7191 14.8424C78.71 14.8381 78.7013 14.8334 78.6921 14.8296C78.662 14.817 78.6308 14.8066 78.5997 14.7959C78.5826 14.79 78.566 14.7831 78.5487 14.7778C78.5235 14.7703 78.4973 14.7646 78.4715 14.7579C78.4478 14.752 78.424 14.7451 78.3994 14.7404C78.3765 14.7359 78.3527 14.7333 78.3291 14.7296C78.3017 14.7254 78.2747 14.7209 78.2467 14.7181C78.2426 14.7177 78.2389 14.7168 78.2349 14.7164C78.2095 14.7142 78.1845 14.7146 78.1595 14.7136C78.1406 14.713 78.1221 14.7108 78.1033 14.7108H78.0825C78.0811 14.7108 78.0795 14.7108 78.0779 14.7108H72.0087C72.0278 14.7108 72.0463 14.713 72.0649 14.7136C72.0899 14.7146 72.1149 14.7142 72.1403 14.7164C72.1444 14.7168 72.148 14.7177 72.1521 14.7181C72.1801 14.7209 72.2071 14.7254 72.2346 14.7296C72.2579 14.7333 72.2817 14.7357 72.3048 14.7404C72.3292 14.7451 72.353 14.752 72.3769 14.7579C72.4027 14.7644 72.4289 14.7703 72.4541 14.7778C72.4714 14.7831 72.4881 14.79 72.5051 14.7959C72.5362 14.8066 72.5675 14.817 72.5975 14.8296C72.6067 14.8336 72.6154 14.8383 72.6246 14.8424C72.6615 14.8586 72.6979 14.8755 72.7332 14.8946C72.7353 14.8958 72.7373 14.8972 72.7393 14.8984C72.9099 14.9919 73.0601 15.1164 73.1823 15.2645C73.1868 15.2696 73.1903 15.2752 73.1945 15.2803C73.2205 15.3126 73.2459 15.3455 73.2691 15.3799C73.2776 15.3924 73.2847 15.4054 73.2928 15.418C73.3107 15.4461 73.3288 15.4739 73.3446 15.5031C73.3552 15.5222 73.3641 15.5424 73.3737 15.5621C73.3857 15.586 73.3983 15.6096 73.4088 15.6344C73.419 15.6579 73.4273 15.6823 73.4362 15.7065C73.4444 15.7284 73.4533 15.7499 73.4604 15.7723C73.4687 15.7987 73.475 15.8259 73.4819 15.8527C73.4874 15.8739 73.4939 15.895 73.4986 15.9165C73.5045 15.9445 73.5084 15.973 73.5126 16.0016C73.5161 16.0229 73.5199 16.0443 73.5224 16.066C73.526 16.0961 73.5268 16.1269 73.5283 16.1576C73.5295 16.1781 73.5313 16.1982 73.5315 16.2188C73.5315 16.2238 73.5323 16.2291 73.5323 16.2342C73.5323 16.2655 73.5295 16.2961 73.5277 16.327C73.5268 16.34 73.5274 16.353 73.5262 16.3662L73.5248 16.3817C73.5244 16.3857 73.5242 16.3896 73.5238 16.3936L69.4633 63.0152C69.4631 63.0188 69.4623 63.0223 69.4619 63.026C69.4595 63.0516 69.4552 63.0763 69.4515 63.1015C69.4479 63.1257 69.4452 63.1503 69.4404 63.174C69.4357 63.1986 69.4292 63.2226 69.4233 63.2468C69.4174 63.2707 69.4117 63.2949 69.405 63.3185C69.3983 63.3406 69.3904 63.3625 69.3829 63.3843C69.3741 63.4089 69.3658 63.4334 69.3559 63.4574C69.3477 63.4775 69.3386 63.4968 69.3297 63.5165C69.3181 63.5411 69.3071 63.5657 69.2943 63.5894C69.2848 63.6079 69.2742 63.6256 69.264 63.6437C69.2504 63.6674 69.2362 63.691 69.2214 63.7141C69.21 63.7312 69.1984 63.7479 69.1865 63.7643C69.1706 63.7865 69.1546 63.8086 69.1377 63.8297C69.1247 63.846 69.1113 63.8618 69.0977 63.8777C69.0802 63.8978 69.0625 63.9173 69.0443 63.9364C69.0294 63.952 69.014 63.967 68.9984 63.9821C68.9799 63.9997 68.961 64.0168 68.9419 64.0335C68.9248 64.0483 68.9076 64.0629 68.8901 64.0767C68.8706 64.092 68.8511 64.1064 68.831 64.1208C68.8121 64.1344 68.7932 64.1478 68.7737 64.1604C68.7534 64.1734 68.7327 64.1858 68.7118 64.1982C68.6914 64.21 68.6711 64.2218 68.6502 64.2327C68.6285 64.2443 68.6059 64.2545 68.5834 64.2648C68.5627 64.2746 68.5421 64.2843 68.5208 64.2931C68.496 64.3032 68.4704 64.3119 68.4448 64.3209C68.4251 64.3278 68.4058 64.3351 68.3855 64.3414C68.3559 64.3503 68.3254 64.3574 68.2949 64.3646C68.2783 64.3686 68.2618 64.3733 68.245 64.3767C68.206 64.3845 68.1664 64.3899 68.1266 64.3948C68.1172 64.396 68.1081 64.3981 68.0987 64.3989C68.0494 64.4038 67.9996 64.4066 67.9492 64.4066H74.0395C74.0403 64.4066 74.0409 64.4068 74.0418 64.4068C74.0927 64.4068 74.1433 64.4038 74.1933 64.3989C74.2026 64.3981 74.2118 64.396 74.2211 64.3948C74.2609 64.3901 74.3005 64.3845 74.3395 64.3767C74.3564 64.3733 74.3729 64.3686 74.3895 64.3646C74.42 64.3574 74.4504 64.3503 74.4801 64.3414C74.5004 64.3353 74.5197 64.328 74.5394 64.3209C74.565 64.3119 74.5906 64.3032 74.6154 64.2931C74.6365 64.2843 74.6572 64.2746 74.6779 64.2648C74.7005 64.2545 74.723 64.2441 74.7448 64.2327C74.7657 64.2218 74.7858 64.21 74.8063 64.1982C74.8272 64.1858 74.848 64.1736 74.8683 64.1604C74.888 64.1476 74.9067 64.1344 74.9256 64.1208C74.9457 64.1066 74.9652 64.092 74.9847 64.0767C75.0021 64.0629 75.0194 64.0483 75.0365 64.0335C75.0558 64.0168 75.0747 63.9997 75.0929 63.9821C75.1084 63.9672 75.1238 63.952 75.1388 63.9364C75.1571 63.9173 75.1748 63.8978 75.1923 63.8777C75.2059 63.8618 75.2193 63.846 75.2323 63.8297C75.2491 63.8084 75.2652 63.7865 75.281 63.7643C75.293 63.7479 75.3046 63.7312 75.316 63.7141C75.3308 63.6912 75.345 63.6676 75.3586 63.6437C75.369 63.6256 75.3795 63.6079 75.3889 63.5894C75.4017 63.5657 75.4126 63.5411 75.4242 63.5165C75.4332 63.4968 75.4423 63.4775 75.4504 63.4574C75.4604 63.4334 75.4687 63.4089 75.4775 63.3843C75.485 63.3625 75.4929 63.3406 75.4996 63.3185C75.5063 63.2951 75.5118 63.2709 75.5179 63.2468C75.5238 63.2226 75.5303 63.1986 75.5349 63.174C75.5396 63.1503 75.5424 63.1257 75.5461 63.1015C75.5496 63.0763 75.554 63.0516 75.5565 63.026C75.5569 63.0223 75.5577 63.0188 75.5579 63.0152L79.6184 16.3936C79.6188 16.3896 79.619 16.3857 79.6194 16.3817L79.6208 16.3662C79.622 16.3528 79.6214 16.34 79.6222 16.327C79.6243 16.2961 79.6269 16.2655 79.6269 16.2342C79.6271 16.2289 79.6263 16.2238 79.6263 16.2188Z" fill="#DA4453"/>
<path d="M84.1942 54.2501C84.6929 54.2501 85.1609 54.2794 85.6043 54.3318L86.9216 39.2051C86.0296 39.0818 85.1198 39.0164 84.1948 39.0164H83.8794L82.5527 54.2499H84.1942V54.2501Z" fill="#CCD1D9"/>
<path d="M30.6711 52.219H12.3906C11.5491 52.219 10.8672 51.5372 10.8672 50.6956C10.8672 49.8543 11.5491 49.1722 12.3906 49.1722H30.6711C31.5127 49.1722 32.1945 49.8543 32.1945 50.6956C32.1945 51.5372 31.5127 52.219 30.6711 52.219Z" fill="#E6E9ED"/>
<path d="M14.4224 42.0634H6.97461C6.13306 42.0634 5.45117 41.3815 5.45117 40.54C5.45117 39.6986 6.13306 39.0165 6.97461 39.0165H14.4224C15.264 39.0165 15.9458 39.6986 15.9458 40.54C15.9458 41.3815 15.264 42.0634 14.4224 42.0634Z" fill="#E6E9ED"/>
<path d="M38.799 29.8763H1.52344C0.681892 29.8763 0 29.1944 0 28.3528C0 27.5115 0.681892 26.8294 1.52344 26.8294H38.799C39.6405 26.8294 40.3224 27.5115 40.3224 28.3528C40.3224 29.1944 39.6403 29.8763 38.799 29.8763Z" fill="#E6E9ED"/>
<path d="M103.746 63.0435L103.627 64.3723C103.67 63.9167 103.709 63.4727 103.746 63.0453C103.746 63.0457 103.746 63.0459 103.746 63.0463C103.746 63.0453 103.746 63.0443 103.746 63.0435Z" fill="#CCD1D9"/>
<path d="M102.232 64.4066C97.7017 64.4066 95.3076 61.6561 93.1955 59.2293C90.9669 56.6687 88.8619 54.2501 84.1942 54.2501H76.3207L75.5571 63.015C75.5569 63.0186 75.5561 63.0221 75.5557 63.0258C75.5533 63.0513 75.549 63.0761 75.5454 63.1013C75.5417 63.1255 75.5391 63.1501 75.5342 63.1738C75.5295 63.1984 75.523 63.2224 75.5171 63.2465C75.5112 63.2705 75.5055 63.2947 75.4988 63.3183C75.4921 63.3404 75.4842 63.3623 75.4767 63.3841C75.468 63.4086 75.4596 63.4332 75.4497 63.4572C75.4416 63.4773 75.4324 63.4966 75.4235 63.5163C75.4119 63.5409 75.4009 63.5655 75.3881 63.5892C75.3786 63.6077 75.368 63.6254 75.3579 63.6435C75.3443 63.6672 75.33 63.6908 75.3152 63.7139C75.3038 63.731 75.2923 63.7477 75.2803 63.7641C75.2644 63.7863 75.2484 63.8084 75.2315 63.8295C75.2185 63.8458 75.2051 63.8616 75.1915 63.8775C75.174 63.8976 75.1564 63.9171 75.1381 63.9362C75.1233 63.9518 75.1078 63.9668 75.0922 63.9819C75.0737 63.9995 75.0548 64.0166 75.0357 64.0333C75.0187 64.0481 75.0014 64.0627 74.9839 64.0765C74.9644 64.0918 74.9449 64.1062 74.9248 64.1206C74.9059 64.1342 74.887 64.1476 74.8675 64.1602C74.8472 64.1732 74.8265 64.1856 74.8056 64.198C74.7851 64.2098 74.7649 64.2216 74.744 64.2325C74.7223 64.2441 74.6998 64.2543 74.6772 64.2646C74.6565 64.2744 74.636 64.2841 74.6146 64.2928C74.5899 64.303 74.5643 64.3117 74.5387 64.3207C74.519 64.3276 74.4997 64.3349 74.4794 64.3412C74.4497 64.3501 74.4192 64.3572 74.3888 64.3643C74.3721 64.3684 74.3557 64.3731 74.3388 64.3765C74.2998 64.3843 74.2602 64.3897 74.2204 64.3946C74.211 64.3958 74.2019 64.3979 74.1925 64.3987C74.1426 64.4036 74.092 64.4066 74.041 64.4066C74.0402 64.4066 74.0396 64.4064 74.0388 64.4064H18.028C17.1878 64.4064 16.507 63.7263 16.5047 62.887L16.4974 62.8832L14.9382 78.9756C14.938 78.9774 14.9378 78.9792 14.9376 78.9811L14.937 78.9867C14.935 79.0079 14.9352 79.0288 14.934 79.0499C14.9325 79.0779 14.9297 79.1054 14.9297 79.1338C14.9297 79.1352 14.9299 79.1364 14.9299 79.1375C14.9299 79.1767 14.9327 79.2153 14.9356 79.2538C14.9368 79.266 14.9364 79.2788 14.9378 79.291C14.9419 79.3306 14.9486 79.3692 14.9557 79.4078C14.9577 79.4192 14.9587 79.4306 14.961 79.4419C14.9669 79.4712 14.9752 79.4994 14.9829 79.5281C14.9882 79.5482 14.9925 79.5687 14.9985 79.5884C15.0004 79.5939 15.0028 79.5994 15.0044 79.6048C15.0782 79.8313 15.2033 80.0349 15.3666 80.2012C15.3697 80.2043 15.3721 80.2075 15.3751 80.2106C15.3914 80.2268 15.4091 80.2412 15.4261 80.2571C15.5311 80.3534 15.6498 80.435 15.7796 80.4988C15.8066 80.5122 15.8332 80.5262 15.8608 80.538C15.8691 80.5417 15.8781 80.5439 15.8866 80.5474C15.9248 80.5626 15.9632 80.5772 16.0028 80.5896C16.0065 80.5906 16.0099 80.5912 16.0136 80.5924C16.0587 80.6059 16.1042 80.6178 16.1507 80.6272C16.1568 80.6284 16.1631 80.6288 16.169 80.63C16.2132 80.6383 16.2577 80.6453 16.303 80.6499C16.304 80.6501 16.3048 80.6501 16.3059 80.6503C16.3558 80.6552 16.4054 80.6576 16.4546 80.6576C16.4552 80.6576 16.456 80.6574 16.4568 80.6574H22.292H24.6588H92.3191H94.7228H100.443C100.444 80.6574 100.445 80.6576 100.446 80.6576C100.497 80.6576 100.547 80.6546 100.596 80.6497C100.605 80.6489 100.614 80.6471 100.623 80.6461C100.662 80.6414 100.702 80.6357 100.74 80.628C100.757 80.6245 100.773 80.6203 100.79 80.6164C100.82 80.6095 100.85 80.6024 100.879 80.5935C100.899 80.5878 100.918 80.5807 100.938 80.574C100.963 80.5654 100.988 80.5565 101.012 80.5465C101.033 80.5382 101.053 80.5291 101.074 80.5197C101.096 80.5094 101.119 80.499 101.14 80.4876C101.161 80.4773 101.181 80.4663 101.201 80.4547C101.222 80.4427 101.243 80.4301 101.263 80.4169C101.282 80.4046 101.301 80.3924 101.32 80.3792C101.34 80.3649 101.36 80.3495 101.38 80.3341C101.397 80.3209 101.414 80.3079 101.43 80.2941C101.451 80.2764 101.47 80.2577 101.49 80.239C101.504 80.226 101.519 80.2128 101.532 80.199C101.553 80.1777 101.573 80.1547 101.593 80.1318C101.604 80.1194 101.615 80.1074 101.626 80.0946C101.648 80.0676 101.668 80.0393 101.688 80.0105C101.695 80.0005 101.703 79.9912 101.71 79.981C101.735 79.9441 101.758 79.9057 101.779 79.8665C101.781 79.864 101.783 79.8618 101.784 79.8592C101.807 79.8169 101.828 79.7736 101.847 79.7288C101.852 79.716 101.856 79.703 101.861 79.6902C101.873 79.6587 101.886 79.6272 101.896 79.5945C101.903 79.5734 101.908 79.5518 101.913 79.5305C101.92 79.5051 101.927 79.4799 101.933 79.4539C101.938 79.431 101.941 79.4076 101.945 79.384C101.949 79.3633 101.953 79.3434 101.956 79.3225C102.016 78.8417 103.05 70.5442 103.624 64.4064L102.232 64.4066Z" fill="#CCD1D9"/>
<path d="M102.231 64.4066C100.391 64.4066 98.9032 63.9528 97.6437 63.251C97.0704 69.3886 95.9216 78.8419 95.8616 79.3227C95.859 79.3436 95.8545 79.3635 95.8511 79.3842C95.847 79.4076 95.844 79.4309 95.8387 79.4541C95.8332 79.4801 95.8259 79.5053 95.8192 79.5307C95.8133 79.552 95.8084 79.5737 95.8017 79.5946C95.7914 79.6273 95.7792 79.6586 95.7668 79.6903C95.7617 79.7031 95.7576 79.7163 95.7524 79.7289C95.7335 79.7738 95.7125 79.8171 95.6894 79.8593C95.6882 79.862 95.6865 79.8642 95.6851 79.8666C95.6638 79.9058 95.6402 79.9444 95.6155 79.9812C95.6088 79.9913 95.601 80.0007 95.5941 80.0106C95.5738 80.0395 95.5535 80.0677 95.5312 80.0947C95.5208 80.1075 95.5096 80.1195 95.4989 80.1319C95.4788 80.1549 95.4588 80.1778 95.4375 80.1991C95.4241 80.213 95.4097 80.2262 95.3959 80.2392C95.376 80.2579 95.3563 80.2765 95.3353 80.2942C95.3191 80.308 95.3022 80.321 95.2856 80.3342C95.2655 80.3497 95.2458 80.3649 95.225 80.3793C95.2066 80.3923 95.1875 80.4047 95.1686 80.4171C95.1481 80.4301 95.1275 80.4429 95.1064 80.4549C95.0865 80.4665 95.0666 80.4774 95.0459 80.4878C95.024 80.4994 95.0018 80.5095 94.9795 80.5199C94.959 80.5292 94.9388 80.5384 94.9177 80.5467C94.8931 80.5566 94.8682 80.5656 94.8432 80.5741C94.8237 80.5808 94.8044 80.5877 94.7845 80.5936C94.755 80.6026 94.7252 80.6097 94.6953 80.6166C94.6788 80.6204 94.6628 80.6247 94.6461 80.6281C94.6075 80.6359 94.5681 80.6416 94.5285 80.6462C94.5196 80.6472 94.5111 80.6491 94.5021 80.6499C94.4538 80.6546 94.4052 80.6574 94.3555 80.6576H94.7229H100.443C100.444 80.6576 100.445 80.6578 100.446 80.6578C100.497 80.6578 100.547 80.6548 100.596 80.6499C100.605 80.6491 100.614 80.6472 100.623 80.6462C100.663 80.6416 100.702 80.6359 100.741 80.6281C100.757 80.6247 100.773 80.6204 100.79 80.6166C100.82 80.6097 100.85 80.6026 100.879 80.5936C100.899 80.5879 100.918 80.5808 100.938 80.5741C100.963 80.5656 100.988 80.5566 101.012 80.5467C101.033 80.5384 101.054 80.5292 101.074 80.5199C101.096 80.5095 101.119 80.4992 101.14 80.4878C101.161 80.4774 101.181 80.4665 101.201 80.4549C101.222 80.4429 101.243 80.4303 101.263 80.4171C101.282 80.4047 101.301 80.3925 101.32 80.3793C101.34 80.3651 101.36 80.3497 101.38 80.3342C101.397 80.321 101.414 80.308 101.43 80.2942C101.451 80.2765 101.471 80.2579 101.49 80.2392C101.504 80.2262 101.519 80.213 101.532 80.1991C101.553 80.1778 101.573 80.1549 101.593 80.1319C101.604 80.1195 101.615 80.1075 101.626 80.0947C101.648 80.0677 101.668 80.0395 101.688 80.0106C101.695 80.0007 101.703 79.9913 101.71 79.9812C101.735 79.9442 101.758 79.9058 101.779 79.8666C101.781 79.8642 101.783 79.862 101.784 79.8593C101.807 79.8171 101.828 79.7738 101.847 79.7289C101.852 79.7161 101.856 79.7031 101.861 79.6903C101.874 79.6588 101.886 79.6273 101.896 79.5946C101.903 79.5735 101.908 79.552 101.914 79.5307C101.92 79.5053 101.927 79.4801 101.933 79.4541C101.938 79.4311 101.941 79.4078 101.945 79.3842C101.949 79.3635 101.953 79.3436 101.956 79.3227C102.016 78.8419 103.05 70.5444 103.624 64.4066H102.231Z" fill="#AAB2BC"/>
<path d="M34.7361 89.2894C29.136 89.2894 24.5801 84.7333 24.5801 79.1332C24.5801 73.5332 29.136 68.9769 34.7361 68.9769C40.3365 68.9769 44.8926 73.5332 44.8926 79.1332C44.8926 84.7333 40.3365 89.2894 34.7361 89.2894Z" fill="#656D78"/>
<path d="M34.7363 83.1957C32.4963 83.1957 30.6738 81.3732 30.6738 79.1332C30.6738 76.8931 32.4963 75.0707 34.7363 75.0707C36.9764 75.0707 38.7988 76.8931 38.7988 79.1332C38.7988 81.373 36.9764 83.1957 34.7363 83.1957Z" fill="#CCD1D9"/>
<path d="M82.1639 89.2894C76.5637 89.2894 72.0078 84.7333 72.0078 79.1332C72.0078 73.5332 76.5637 68.9769 82.1639 68.9769C87.7642 68.9769 92.3203 73.5332 92.3203 79.1332C92.3203 84.7333 87.7642 89.2894 82.1639 89.2894Z" fill="#656D78"/>
<path d="M82.1641 83.1957C79.924 83.1957 78.1016 81.3732 78.1016 79.1332C78.1016 76.8931 79.924 75.0707 82.1641 75.0707C84.4041 75.0707 86.2266 76.8931 86.2266 79.1332C86.2266 81.373 84.4041 83.1957 82.1641 83.1957Z" fill="#CCD1D9"/>
</g>
<defs>
<clipPath id="clip0">
<rect width="104" height="104" fill="white"/>
</clipPath>
</defs>
</svg>
