<svg width="83" height="83" viewBox="0 0 83 83" fill="none" xmlns="http://www.w3.org/2000/svg">
<g clip-path="url(#clip0)">
<path d="M40.3272 0.268149L3.16051 18.2107C2.69445 18.4357 2.39844 18.9075 2.39844 19.4249V63.5751C2.39844 64.0925 2.69461 64.5643 3.16051 64.7893L40.3272 82.7319C41.0678 83.0895 41.9312 83.0895 42.6719 82.7319L79.8386 64.7893C80.3046 64.5643 80.6007 64.0925 80.6007 63.5751V19.4249C80.6007 18.9075 80.3045 18.4357 79.8386 18.2107L42.6719 0.268149C41.9312 -0.0893017 41.0678 -0.0893017 40.3272 0.268149Z" fill="#FFE17D"/>
<path d="M2.62263 18.6868C2.48095 18.9026 2.39844 19.1566 2.39844 19.4249V63.5751C2.39844 64.0925 2.69461 64.5643 3.16051 64.7893L40.3272 82.7317C40.6974 82.9105 41.0985 82.9998 41.4995 82.9998V37.455L2.62263 18.6868Z" fill="#FFC350"/>
<path d="M80.3769 18.6868C80.5186 18.9026 80.6011 19.1566 80.6011 19.4249V63.5751C80.6011 64.0925 80.3049 64.5643 79.839 64.7893L42.6724 82.7317C42.3021 82.9105 41.9011 83 41.5 83V37.455L80.3769 18.6868Z" fill="#FFD164"/>
<path d="M13.5209 61.2217C13.3248 61.2217 13.1246 61.1783 12.9364 61.0875L7.19818 58.3172C6.52672 57.9933 6.24627 57.1875 6.57017 56.5173C6.89276 55.8472 7.7012 55.568 8.37007 55.8893L14.1083 58.6598C14.7797 58.9837 15.0602 59.7895 14.7363 60.4597C14.5046 60.9413 14.0227 61.2217 13.5209 61.2217Z" fill="#FFE17D"/>
<path d="M18.8021 57.7839C18.606 57.7839 18.4057 57.7404 18.2175 57.6497L7.20577 52.3341C6.53561 52.0102 6.25386 51.2044 6.57776 50.5342C6.90035 49.8653 7.71009 49.5849 8.37766 49.9062L19.3893 55.2217C20.0594 55.5456 20.3412 56.3515 20.0173 57.0216C19.7858 57.5033 19.3038 57.7839 18.8021 57.7839Z" fill="#FFF6D8"/>
<path d="M67.2021 25.0253L28.1885 6.17798L17.9043 11.1628L57.0054 30.0393L67.2021 25.0253Z" fill="#FF8087"/>
<path d="M57.0059 30.0393V44.6627C57.0059 45.1598 57.5254 45.4859 57.9732 45.2698L66.4405 41.1822C66.9065 40.9572 67.2025 40.4855 67.2025 39.9681V25.0255L57.0059 30.0393Z" fill="#E6646E"/>
</g>
<defs>
<clipPath id="clip0">
<rect width="83" height="83" fill="white"/>
</clipPath>
</defs>
</svg>
