<svg width="26" height="26" viewBox="0 0 26 26" fill="none" xmlns="http://www.w3.org/2000/svg">
<g clip-path="url(#clip0)">
<path d="M17.2811 20.4421L20.9722 16.8442C21.2128 16.6096 21.0798 16.1997 20.747 16.1513L15.6461 15.4101L13.3649 10.7878C13.2161 10.4865 12.7852 10.4864 12.6363 10.7878L10.3551 15.4101L5.25418 16.1513C4.92165 16.1996 4.78832 16.6095 5.02904 16.8442L8.7201 20.4421L7.84873 25.5224C7.79191 25.8537 8.14049 26.1071 8.43809 25.9507L13.0006 23.5521C18.0003 26.1805 17.6089 25.9973 17.7521 25.9973C18.0017 25.9973 18.1954 25.7726 18.1525 25.5224L17.2811 20.4421ZM13.1897 22.7336C13.0714 22.6714 12.93 22.6713 12.8117 22.7336L8.78874 24.8485L9.55709 20.3689C9.57968 20.2372 9.53601 20.1027 9.44025 20.0094L6.18562 16.8369L10.6834 16.1833C10.8157 16.1641 10.9301 16.081 10.9892 15.9611L13.0007 11.8854L15.0121 15.9611C15.0712 16.081 15.1856 16.1641 15.3179 16.1833L19.8157 16.8369L16.5611 20.0094C16.4653 20.1027 16.4216 20.2372 16.4442 20.3689L17.2126 24.8485L13.1897 22.7336Z" fill="black"/>
<path d="M23.5616 1.62483H21.5305V1.21862C21.5305 0.546653 20.9838 0 20.3119 0C19.64 0 19.0933 0.546653 19.0933 1.21862V1.62483H6.90707V1.21862C6.90707 0.546653 6.36037 0 5.68845 0C5.01653 0 4.46983 0.546653 4.46983 1.21862V1.62483H2.43879C1.54285 1.62483 0.813965 2.35372 0.813965 3.24966V20.3104C0.813965 21.2063 1.54285 21.9352 2.43879 21.9352H7.31328C7.53761 21.9352 7.71949 21.7533 7.71949 21.529C7.71949 21.3047 7.53761 21.1228 7.31328 21.1228H2.43879C1.99085 21.1228 1.62638 20.7583 1.62638 20.3104V6.49931H24.374V20.3104C24.374 20.7583 24.0095 21.1228 23.5616 21.1228H18.6871C18.4628 21.1228 18.2809 21.3047 18.2809 21.529C18.2809 21.7533 18.4628 21.9352 18.6871 21.9352H23.5616C24.4575 21.9352 25.1864 21.2063 25.1864 20.3104C25.1864 19.5669 25.1864 4.06593 25.1864 3.24966C25.1864 2.35372 24.4575 1.62483 23.5616 1.62483ZM19.9057 1.21862C19.9057 0.994649 20.0879 0.812414 20.3119 0.812414C20.5359 0.812414 20.7181 0.994649 20.7181 1.21862V3.24966C20.7181 3.47363 20.5359 3.65586 20.3119 3.65586C20.0879 3.65586 19.9057 3.47363 19.9057 3.24966V1.21862ZM5.28224 1.21862C5.28224 0.994649 5.46448 0.812414 5.68845 0.812414C5.91242 0.812414 6.09466 0.994649 6.09466 1.21862V3.24966C6.09466 3.47363 5.91242 3.65586 5.68845 3.65586C5.46448 3.65586 5.28224 3.47363 5.28224 3.24966V1.21862ZM1.62638 5.6869V3.24966C1.62638 2.80171 1.99085 2.43724 2.43879 2.43724H4.46983V3.24966C4.46983 3.92163 5.01653 4.46828 5.68845 4.46828C6.36037 4.46828 6.90707 3.92163 6.90707 3.24966V2.43724H19.0933V3.24966C19.0933 3.92163 19.64 4.46828 20.3119 4.46828C20.9838 4.46828 21.5305 3.92163 21.5305 3.24966V2.43724H23.5616C24.0095 2.43724 24.374 2.80171 24.374 3.24966V5.6869H1.62638Z" fill="black"/>
</g>
<defs>
<clipPath id="clip0">
<rect width="26" height="26" fill="white"/>
</clipPath>
</defs>
</svg>
