<svg width="25" height="25" viewBox="0 0 25 25" fill="none" xmlns="http://www.w3.org/2000/svg">
<g clip-path="url(#clip0)">
<path d="M24.9272 12.2752C18.8526 3.73424 6.15568 3.7213 0.0718384 12.2752C-0.0245972 12.4107 -0.0245972 12.5925 0.0718384 12.728C6.1464 21.2689 18.8495 21.2732 24.9272 12.728C25.0236 12.5924 25.0236 12.4107 24.9272 12.2752ZM0.872815 12.5016C6.6274 4.73399 18.3135 4.65552 24.1262 12.5016C18.3715 20.2692 6.68561 20.3476 0.872815 12.5016Z" fill="black"/>
<path d="M12.5 7.42346C9.6999 7.42346 7.42188 9.70149 7.42188 12.5016C7.42188 15.3017 9.6999 17.5797 12.5 17.5797C15.3001 17.5797 17.5781 15.3017 17.5781 12.5016C17.5781 9.70149 15.3001 7.42346 12.5 7.42346ZM12.5 16.7985C10.1307 16.7985 8.20312 14.8709 8.20312 12.5016C8.20312 10.1323 10.1307 8.20471 12.5 8.20471C14.8693 8.20471 16.7969 10.1323 16.7969 12.5016C16.7969 14.8709 14.8693 16.7985 12.5 16.7985Z" fill="black"/>
<path d="M12.5 10.1578C11.2077 10.1578 10.1562 11.2093 10.1562 12.5016C10.1562 13.7939 11.2077 14.8453 12.5 14.8453C13.7923 14.8453 14.8438 13.7939 14.8438 12.5016C14.8438 11.2093 13.7923 10.1578 12.5 10.1578ZM12.5 14.0641C11.6384 14.0641 10.9375 13.3632 10.9375 12.5016C10.9375 11.64 11.6384 10.9391 12.5 10.9391C13.3616 10.9391 14.0625 11.64 14.0625 12.5016C14.0625 13.3632 13.3616 14.0641 12.5 14.0641Z" fill="black"/>
</g>
<defs>
<clipPath id="clip0">
<rect width="25" height="25" fill="white"/>
</clipPath>
</defs>
</svg>
