<svg width="94" height="94" viewBox="0 0 94 94" fill="none" xmlns="http://www.w3.org/2000/svg">
<path d="M80.2277 80.155L63.7824 45.7405C63.1262 44.3686 61.4832 43.7877 60.1105 44.4432L47.1134 50.6538L34.117 44.4432C32.745 43.7877 31.1006 44.3679 30.4451 45.7405L13.9998 80.155C13.5451 81.1074 13.6742 82.2363 14.3333 83.0617C14.9917 83.8864 16.0638 84.2622 17.0937 84.0284L29.2467 81.2724L34.7373 92.4594C35.1999 93.4025 36.1595 93.9999 37.2094 93.9999H37.2237C38.2794 93.9949 39.2389 93.386 39.6943 92.4336L47.1134 76.907L54.5332 92.4336C54.9879 93.386 55.9474 93.9941 57.0031 93.9999H57.0181C58.0673 93.9999 59.0269 93.4025 59.4902 92.4594L64.9808 81.2724L77.1331 84.0284C78.163 84.2622 79.2351 83.8864 79.8942 83.0617C80.5533 82.2363 80.6824 81.1074 80.2277 80.155Z" fill="#FF5B5B"/>
<path d="M63.7823 45.7405C63.1261 44.3686 61.4831 43.7877 60.1104 44.4432L47.1133 50.6538V76.907L54.533 92.4329C54.9877 93.3853 55.9473 93.9941 57.003 93.9999H57.018C58.0672 93.9999 59.0268 93.4025 59.4901 92.4594L64.9807 81.2724L77.133 84.0277C78.1629 84.2622 79.235 83.8857 79.8941 83.061C80.5532 82.2362 80.6822 81.1074 80.2268 80.155L63.7823 45.7405Z" fill="#FF193D"/>
<path d="M82.3024 36.6843C83.2842 34.7322 83.6249 32.4954 83.2405 30.3138C82.8561 28.1329 81.771 26.1478 80.1804 24.6489C80.4357 22.4788 79.991 20.2606 78.883 18.3422C77.7757 16.4238 76.0768 14.9292 74.0701 14.065C73.5674 11.9386 72.3913 10.0066 70.6944 8.58229C68.9969 7.15872 66.8899 6.33542 64.7083 6.20992C63.5085 4.3833 61.7421 2.96977 59.6602 2.21245C57.579 1.45512 55.317 1.40205 53.2243 2.03029C51.4723 0.724335 49.3287 0 47.1134 0C44.8988 0 42.7552 0.724335 41.0032 2.03029C38.9105 1.40205 36.6486 1.45512 34.5666 2.21245C32.4854 2.97049 30.7191 4.38402 29.5192 6.20992C27.3376 6.33614 25.2299 7.15872 23.5331 8.58229C21.8363 10.0066 20.6601 11.9386 20.1574 14.0657C18.1501 14.9299 16.4518 16.4238 15.3438 18.3422C14.2365 20.2606 13.7919 22.4788 14.0472 24.6489C12.4565 26.1478 11.3714 28.1329 10.987 30.3138C10.6019 32.4954 10.9433 34.7322 11.9251 36.6843C10.9433 38.6364 10.6019 40.8733 10.987 43.0542C11.3714 45.2358 12.4565 47.2209 14.0472 48.7198C13.7919 50.8899 14.2365 53.1081 15.3438 55.0265C16.4518 56.9449 18.1508 58.4388 20.1574 59.3029C20.6601 61.43 21.8363 63.3621 23.5331 64.7856C25.2306 66.2099 27.3376 67.0325 29.5192 67.1587C30.7191 68.9846 32.4854 70.3982 34.5666 71.1562C36.6486 71.9135 38.9105 71.9659 41.0032 71.3384C42.7552 72.6443 44.8981 73.3687 47.1134 73.3687C49.3287 73.3687 51.4723 72.6443 53.2236 71.3384C55.317 71.9666 57.579 71.9135 59.6602 71.1562C61.7421 70.3989 63.5085 68.9846 64.7083 67.1587C66.8892 67.0332 68.9969 66.2099 70.6937 64.7864C72.3905 63.3621 73.5667 61.43 74.0694 59.3036C76.0768 58.4388 77.7757 56.9449 78.883 55.0265C79.9903 53.1081 80.435 50.8899 80.1804 48.7198C81.7703 47.2209 82.8561 45.2358 83.2405 43.0549C83.6249 40.8733 83.2842 38.6364 82.3024 36.6843Z" fill="#FFB64C"/>
<path d="M83.2404 30.3138C82.856 28.1329 81.7709 26.1478 80.1802 24.6489C80.4356 22.4788 79.9909 20.2606 78.8829 18.3422C77.7756 16.4238 76.0766 14.9299 74.07 14.0657C73.5673 11.9386 72.3911 10.0066 70.6943 8.58229C68.9968 7.15872 66.8898 6.33614 64.7082 6.20992C63.5083 4.38402 61.742 2.97049 59.6601 2.21245C57.5788 1.45512 55.3169 1.40277 53.2242 2.03029C51.4722 0.724335 49.3286 0 47.1133 0V73.3687C49.3286 73.3687 51.4722 72.6443 53.2242 71.3384C55.3169 71.9666 57.5788 71.9135 59.6601 71.1562C61.742 70.3989 63.5083 68.9846 64.7082 67.1587C66.8898 67.0332 68.9968 66.2099 70.6936 64.7864C72.3904 63.3621 73.5673 61.43 74.07 59.3036C76.0766 58.4388 77.7756 56.9449 78.8829 55.0265C79.9909 53.1081 80.4348 50.8899 80.1802 48.7198C81.7702 47.2209 82.856 45.2358 83.2404 43.0549C83.6248 40.8733 83.2841 38.6364 82.3023 36.6843C83.2841 34.7322 83.6248 32.4954 83.2404 30.3138Z" fill="#FF9100"/>
<path d="M47.1133 12.5546C33.8085 12.5546 22.9836 23.3788 22.9836 36.6843C22.9836 49.9898 33.8085 60.814 47.1133 60.814C60.4188 60.814 71.2437 49.9898 71.2437 36.6843C71.2437 23.3788 60.4188 12.5546 47.1133 12.5546Z" fill="#FFF261"/>
<path d="M47.1133 12.5546V60.814C60.4188 60.814 71.2437 49.9891 71.2437 36.6843C71.2437 23.3788 60.4188 12.5546 47.1133 12.5546Z" fill="#FDBF00"/>
<path d="M44.8643 45.4049C44.1342 45.4049 43.4335 45.1144 42.9172 44.5981L35.4823 37.1625C34.4066 36.0875 34.4066 34.3434 35.4823 33.2683C36.5574 32.1926 38.3008 32.1926 39.3765 33.2683L44.8643 38.7561L54.8508 28.7696C55.9265 27.6945 57.6699 27.6945 58.7457 28.7696C59.8207 29.8453 59.8207 31.5887 58.7457 32.6645L46.8121 44.5981C46.295 45.1144 45.5951 45.4049 44.8643 45.4049Z" fill="#06CCAB"/>
<path d="M54.8508 28.7703L47.1133 36.5071V44.2962L58.7449 32.6645C59.8207 31.5895 59.8207 29.8453 58.7449 28.7703C57.6699 27.6945 55.9258 27.6945 54.8508 28.7703Z" fill="#1CADB5"/>
</svg>
