<svg width="94" height="94" viewBox="0 0 94 94" fill="none" xmlns="http://www.w3.org/2000/svg">
<path d="M83.5152 58.0529C82.7318 58.0529 82.0967 58.6879 82.0967 59.4713V79.4082C82.0967 84.3984 78.0228 88.458 73.0153 88.458H61.1246C60.3412 88.458 59.7062 89.0931 59.7062 89.8765C59.7062 90.6599 60.3412 91.2949 61.1246 91.2949H73.0153C79.5872 91.2949 84.9338 85.9624 84.9338 79.408V59.4715C84.9338 58.6879 84.2986 58.0529 83.5152 58.0529Z" fill="#D9DDFF"/>
<path d="M57.2987 94H64.8306C67.08 94 68.9034 92.1766 68.9034 89.9272C68.9034 87.6778 67.08 85.8543 64.8306 85.8543H57.2987C55.0493 85.8543 53.2258 87.6778 53.2258 89.9272C53.2258 92.1766 55.0493 94 57.2987 94Z" fill="#7776D0"/>
<path d="M89.9448 69.4952H83.6433V42.9611C83.6433 22.7495 67.2115 6.30608 47.0141 6.30608C26.8168 6.30608 10.3848 22.7495 10.3848 42.9611V69.4952H4.08313V42.9611C4.08313 19.2724 23.3419 0 47.014 0C70.6862 0 89.9448 19.2724 89.9448 42.9611V69.4952Z" fill="#D9DDFF"/>
<path d="M14.4257 42.2578H8.01993C3.59073 42.2578 0 45.8486 0 50.2778V63.9849C0 68.4141 3.59073 72.0048 8.01993 72.0048H14.4257V42.2578Z" fill="#7776D0"/>
<path d="M14.4257 38.07C16.6022 38.07 18.3665 39.8343 18.3665 42.0108V71.7648C18.3665 73.9413 16.6022 75.7056 14.4257 75.7056C12.2492 75.7056 10.4849 73.9413 10.4849 71.7648V42.0108C10.4849 39.8345 12.2492 38.07 14.4257 38.07Z" fill="#E8F3FF"/>
<path d="M79.5742 71.5179H85.98C90.4092 71.5179 93.9999 67.9272 93.9999 63.498V49.7909C93.9999 45.3617 90.4092 41.7709 85.98 41.7709H79.5742V71.5179Z" fill="#7776D0"/>
<path d="M79.5743 75.7056C77.3978 75.7056 75.6334 73.9413 75.6334 71.7648V42.0108C75.6334 39.8343 77.3978 38.07 79.5743 38.07C81.7508 38.07 83.5151 39.8343 83.5151 42.0108V71.7648C83.5151 73.9413 81.7508 75.7056 79.5743 75.7056Z" fill="#E8F3FF"/>
<path d="M47 37.4004C57.9805 37.4004 66.8821 46.3003 66.8821 57.2789C66.8821 63.0676 64.4065 68.2776 60.457 71.9107V77.152L55.7163 75.1491C53.0843 76.4348 50.1267 77.1573 47.0001 77.1573C36.0196 77.1573 27.118 68.2574 27.118 57.2789C27.1179 46.3003 36.0194 37.4004 47 37.4004Z" fill="#FF8CCC"/>
<path d="M46.9999 37.4004C45.7065 37.4004 44.4419 37.524 43.2172 37.7599C52.3886 39.5261 59.3165 47.5936 59.3165 57.279C59.3165 66.7644 52.205 74.9782 43.1625 76.7875C44.4041 77.0303 45.6871 77.1577 46.9999 77.1577C50.1265 77.1577 53.0841 76.4352 55.7161 75.1495L60.4568 77.1523V71.9111C64.4063 68.2781 66.8819 63.0681 66.8819 57.2792C66.882 46.3003 57.9805 37.4004 46.9999 37.4004Z" fill="#FF78C2"/>
<path d="M43.2058 50.741H50.7941C51.5775 50.741 52.2125 50.106 52.2125 49.3226C52.2125 48.5392 51.5775 47.9041 50.7941 47.9041H43.2058C42.4224 47.9041 41.7874 48.5392 41.7874 49.3226C41.7874 50.106 42.4224 50.741 43.2058 50.741Z" fill="white"/>
<path d="M50.7941 63.8166H43.2058C42.4224 63.8166 41.7874 64.4516 41.7874 65.235C41.7874 66.0184 42.4224 66.6535 43.2058 66.6535H50.7941C51.5775 66.6535 52.2125 66.0184 52.2125 65.235C52.2125 64.4516 51.5775 63.8166 50.7941 63.8166Z" fill="white"/>
<path d="M54.8538 55.8604H39.1462C38.3628 55.8604 37.7278 56.4955 37.7278 57.2789C37.7278 58.0623 38.3628 58.6973 39.1462 58.6973H54.8538C55.6372 58.6973 56.2722 58.0623 56.2722 57.2789C56.2724 56.4955 55.6372 55.8604 54.8538 55.8604Z" fill="white"/>
<path d="M67.3403 0C57.998 0 50.4246 7.57196 50.4246 16.9127C50.4246 21.8377 52.5307 26.2704 55.8911 29.3614V33.8207L59.9246 32.1168C62.1639 33.2106 64.6802 33.8253 67.3403 33.8253C76.6827 33.8253 84.2561 26.2532 84.2561 16.9127C84.2561 7.57196 76.6827 0 67.3403 0V0Z" fill="#FFD54D"/>
<path d="M67.3404 0C66.04 0 64.7739 0.146875 63.5576 0.424469C71.0787 2.14217 76.6906 8.87217 76.6906 16.9125C76.6906 24.9526 71.0793 31.6822 63.5585 33.4003C64.7745 33.6781 66.0402 33.8251 67.3404 33.8251C76.6825 33.8251 84.2562 26.253 84.2562 16.9125C84.2562 7.57196 76.6827 0 67.3404 0Z" fill="#FFC919"/>
<path d="M73.391 11.8247C73.2274 8.67109 70.6243 6.1509 67.4646 6.08719C64.3915 6.02844 61.7631 8.26718 61.3398 11.3014C61.301 11.579 61.2814 11.8629 61.2814 12.145C61.2814 12.9284 61.9164 13.5635 62.6998 13.5635C63.4832 13.5635 64.1183 12.9284 64.1183 12.145C64.1183 11.9938 64.1287 11.8419 64.1495 11.6938C64.3744 10.0816 65.7791 8.8881 67.4073 8.92353C69.0869 8.95749 70.4708 10.2963 70.5576 11.9716C70.6041 12.866 70.2912 13.715 69.6766 14.3623C69.0615 15.0102 68.2317 15.3669 67.3401 15.3669C66.5568 15.3669 65.9217 16.002 65.9217 16.7854V21.6379C65.9217 22.4213 66.5568 23.0564 67.3401 23.0564C68.1235 23.0564 68.7586 22.4213 68.7586 21.6379V18.034C69.8851 17.7608 70.9259 17.1671 71.7339 16.3159C72.8898 15.0987 73.4782 13.5036 73.391 11.8247Z" fill="white"/>
<path d="M67.3404 25.0895C65.5149 25.0895 65.5118 27.9266 67.3404 27.9266C69.1658 27.9266 69.169 25.0895 67.3404 25.0895Z" fill="white"/>
</svg>
