<svg width="94" height="94" viewBox="0 0 94 94" fill="none" xmlns="http://www.w3.org/2000/svg">
<path d="M64.9031 21.7702L39.0509 59.2314L35.3873 89.2005L73.6705 93.9991L80.0469 41.042L64.9031 21.7702Z" fill="#FF641A"/>
<path d="M91.5835 2.35236C90.1337 0.90252 88.1378 0.0989298 86.095 0.00933602C83.8717 -0.0881523 81.5927 0.660543 79.9009 2.35236L60.791 21.5254L62.685 23.4194L64.6852 25.4196L70.3601 19.6798C75.7445 23.2396 83.0196 22.5991 87.6893 17.9294L91.5835 14.0352C94.8054 10.8131 94.8054 5.57425 91.5835 2.35236ZM87.6893 10.1408L83.7951 14.035C81.2536 16.5765 77.4617 17.1142 74.3904 15.6486L83.7951 6.24657C84.8708 5.17089 86.6137 5.17089 87.6893 6.24657C88.7624 7.31967 88.7624 9.06767 87.6893 10.1408Z" fill="#516373"/>
<path d="M70.3601 19.6796C75.7446 23.2395 83.0197 22.5989 87.6894 17.9292L91.5836 14.035C94.8055 10.8131 94.8055 5.57426 91.5836 2.35237C90.1337 0.90253 88.1379 0.0989398 86.095 0.00934601L62.685 23.4194L64.6853 25.4196L70.3601 19.6796ZM83.7953 6.24658C84.871 5.1709 86.6139 5.1709 87.6896 6.24658C88.7627 7.31968 88.7627 9.06768 87.6896 10.1408L83.7953 14.035C81.2539 16.5765 77.4619 17.1142 74.3906 15.6486L83.7953 6.24658Z" fill="#3E4D59"/>
<path d="M65.3566 20.7452H38.2299L0 58.8424L13.6311 72.4735L27.262 86.1046L65.3594 47.9806V20.7452H65.3566Z" fill="#FFE680"/>
<path d="M65.3594 47.9806V20.7452L13.6311 72.4735L27.262 86.1046L65.3594 47.9806Z" fill="#FFC550"/>
<path d="M51.0528 39.0493L49.054 37.0505L47.1586 35.1551L42.8704 39.4433C39.807 38.0004 36.0622 38.4673 33.529 40.9963C30.3247 44.2005 30.3086 49.4005 33.4776 52.6268C34.6834 53.8546 34.5375 55.5672 33.529 56.5757C32.464 57.6407 30.6855 57.6818 29.5847 56.5197C28.5644 55.4425 28.5795 53.7368 29.6348 52.6815L25.7353 48.7873C23.2107 51.3183 22.7434 55.0621 24.1865 58.127L19.8966 62.4169L21.792 64.3123L23.7908 66.3111L28.0786 62.0233C31.6508 63.7109 35.183 62.7101 37.4232 60.4699C40.3871 57.5059 40.9162 52.4791 37.3733 48.7313C36.353 47.6517 36.3681 45.9485 37.4232 44.8932C38.4761 43.835 40.1885 43.8227 41.2631 44.8415C42.4002 45.9199 42.3991 47.703 41.3174 48.7874L45.2116 52.6816C47.743 50.1503 48.2115 46.404 46.7654 43.3367L51.0528 39.0493Z" fill="#FF7B4A"/>
<path d="M41.3174 48.7875L45.2116 52.6817C47.743 50.1503 48.2115 46.4041 46.7654 43.3368L51.0528 39.0493L49.0541 37.0505L41.2631 44.8415C42.4001 45.9199 42.3991 47.703 41.3174 48.7875Z" fill="#FF435B"/>
<path d="M28.0787 62.0235C31.6509 63.711 35.183 62.7103 37.4232 60.4701C40.3872 57.5061 40.9163 52.4793 37.3733 48.7314L33.4776 52.6271C34.6835 53.8552 34.5375 55.5676 33.529 56.576C32.464 57.6411 30.6855 57.6822 29.5847 56.52L21.7921 64.3127L23.7908 66.3115L28.0787 62.0235Z" fill="#FF435B"/>
</svg>
