<svg width="94" height="94" viewBox="0 0 94 94" fill="none" xmlns="http://www.w3.org/2000/svg">
<g clip-path="url(#clip0)">
<path d="M47.0739 93.9261C72.9905 93.9261 94 72.9165 94 47C94 21.0834 72.9905 0.0738831 47.0739 0.0738831C21.1574 0.0738831 0.147827 21.0834 0.147827 47C0.147827 72.9165 21.1574 93.9261 47.0739 93.9261Z" fill="#84DBFF"/>
<path d="M47.0739 93.9261C72.9905 93.9261 94 72.9165 94 47C94 21.0834 72.9905 0.0738831 47.0739 0.0738831C21.1574 0.0738831 0.147827 21.0834 0.147827 47C0.147827 72.9165 21.1574 93.9261 47.0739 93.9261Z" fill="#84DBFF"/>
<path d="M28.3035 63.8491C28.3035 63.4796 28.3035 63.184 28.3774 62.8145C28.5252 61.9277 28.9686 61.1148 29.4859 60.3758C29.5598 60.3019 29.6337 60.1541 29.7076 60.0802C29.7815 60.0063 29.9293 60.0063 30.0032 60.0063C30.5204 60.0063 31.0377 60.0063 31.555 60.0063C31.7028 60.0063 31.7767 60.0063 31.9245 60.0063C32.0723 60.0063 32.1462 60.1541 32.294 60.228C32.6635 60.5236 32.8852 60.8931 33.033 61.3365C33.3286 62.2233 33.033 63.184 32.7374 64.0708C32.5896 64.4403 32.5157 64.8837 32.3679 65.2532C32.294 65.4749 32.2201 65.6966 32.0723 65.9183C31.7767 66.2878 31.3333 66.5095 30.9638 66.6573C30.3727 66.879 29.7815 67.1007 29.2642 66.8051C28.8947 66.5834 28.7469 66.2139 28.5991 65.8444C28.3774 65.2532 28.3035 64.5142 28.3035 63.8491Z" fill="#F9B54C"/>
<path d="M73.2343 51.5818C71.4607 53.5032 70.2783 54.3161 68.5048 56.2375C67.8397 56.9765 67.0268 57.7894 65.9922 57.7894C65.8444 57.7894 65.6227 57.7155 65.4749 57.7155C64.8098 57.4938 64.2925 56.9765 63.8491 56.4592C62.0016 54.4639 60.228 52.2469 58.0849 50.5472C55.7941 48.6997 52.9859 47.5173 50.8428 45.4482C49.956 44.5614 48.478 44.6353 47.2956 44.4875C46.3349 44.3397 45.4482 44.7831 44.7092 45.3743C43.9702 45.9655 43.379 46.6306 42.5661 47.2217C41.3837 48.1085 39.8318 48.478 38.3538 48.4041C37.9104 48.3302 37.3931 48.2563 37.0236 47.9607C36.6541 47.6651 36.4324 47.1478 36.6541 46.7044C36.728 46.4828 36.9497 46.2611 37.1714 46.1133C38.5755 44.6353 38.5016 41.9749 40.2752 40.9403C41.0142 40.4969 41.8271 40.423 42.64 40.1274C43.379 39.8318 44.0441 39.3145 44.7092 38.945C45.3743 38.5755 46.1132 38.3538 46.8522 38.206C48.1085 37.9104 49.4387 37.9104 50.7689 37.9104C52.0991 37.9104 53.4293 37.9843 54.6856 38.3538C55.6463 38.6494 56.5331 39.0928 57.5677 39.3145C59.0456 39.6101 60.5236 39.2406 62.0016 39.0189C62.2972 38.945 62.5928 38.945 62.8145 39.0928C62.9623 39.1667 63.1101 39.3145 63.184 39.3884C63.6274 39.8318 64.1447 40.2752 64.5881 40.7186C67.9875 43.8963 71.4607 47.2956 73.2343 51.5818Z" fill="#F9B54C"/>
<path d="M73.2343 51.5818C71.4607 53.5032 70.2783 54.3161 68.5048 56.2375C67.8397 56.9765 67.0268 57.7894 65.9922 57.7894C65.8444 57.7894 65.6227 57.7155 65.4749 57.7155C64.8098 57.4938 64.2925 56.9765 63.8491 56.4592C62.0016 54.4639 60.228 52.2469 58.0849 50.5472C55.7941 48.6997 52.9859 47.5173 50.8428 45.4482C49.956 44.5614 48.478 44.6353 47.2956 44.4875C46.3349 44.3397 45.4482 44.7831 44.7092 45.3743C43.9702 45.9655 43.379 46.6306 42.5661 47.2217C41.3837 48.1085 39.8318 48.478 38.3538 48.4041C38.206 48.4041 38.0582 48.4041 37.9104 48.3302C37.6148 48.2563 37.2453 48.1824 37.0236 47.9607C36.6541 47.6651 36.4324 47.1478 36.6541 46.7044C36.728 46.4828 36.9497 46.2611 37.1714 46.1133C37.8365 45.4482 38.1321 44.4875 38.5016 43.6007C38.8711 42.5661 39.3145 41.5315 40.2752 40.9403C41.0142 40.4969 41.901 40.423 42.64 40.1274C43.379 39.8318 44.0441 39.3145 44.7092 38.945C45.3743 38.5755 46.1132 38.3538 46.8522 38.206C48.1085 37.9104 49.4387 37.9104 50.7689 37.9104C52.0991 37.9104 53.4293 37.9843 54.6856 38.3538C55.6463 38.6494 56.5331 39.1667 57.5677 39.3145C59.0456 39.6101 60.5236 39.2406 62.0016 39.0189C62.2972 39.0189 62.5928 38.945 62.8145 39.0928C62.9623 39.1667 63.1101 39.3145 63.184 39.3884C63.6274 39.8318 64.1447 40.2752 64.5881 40.7186C67.9875 43.8963 71.4607 47.2956 73.2343 51.5818Z" fill="#F9B54C"/>
<path d="M73.2343 51.5818C71.4607 53.5032 70.2783 54.3161 68.5048 56.2375C67.8397 56.9765 67.0268 57.7894 65.9922 57.7894C65.8444 57.7894 65.6227 57.7155 65.4749 57.7155C64.8098 57.4938 64.2925 56.9765 63.8491 56.4592C62.0016 54.4639 60.228 52.2469 58.0849 50.5472C55.7941 48.6997 52.9859 47.5173 50.8428 45.4482C49.956 44.5614 48.478 44.6353 47.2956 44.4875C46.3349 44.3397 45.4482 44.7831 44.7092 45.3743C43.9702 45.9655 43.379 46.6306 42.5661 47.2217C41.3837 48.1085 39.8318 48.478 38.3538 48.4041C38.206 48.4041 38.0582 48.4041 37.9104 48.3302C37.6148 48.2563 37.2453 48.1824 37.0236 47.9607C36.6541 47.6651 36.4324 47.1478 36.6541 46.7044V46.6305C36.728 46.4088 36.9497 46.2611 37.0975 46.1133C37.7626 45.4482 38.0582 44.4875 38.4277 43.6007C38.4277 43.5268 38.4277 43.5268 38.5016 43.4529C38.8711 42.4922 39.3145 41.5315 40.2013 40.9403C40.9403 40.4969 41.8271 40.423 42.5661 40.1274C43.3051 39.8318 43.9702 39.3145 44.6353 38.945C45.3004 38.5755 46.0393 38.3538 46.7783 38.206C48.0346 37.9104 49.3648 37.9104 50.695 37.9104C52.0252 37.9104 53.3554 37.9843 54.6117 38.3538C55.5724 38.6494 56.4592 39.1667 57.4938 39.3145C58.9717 39.6101 60.4497 39.2406 61.9277 39.0189C62.2233 39.0189 62.5189 38.945 62.7406 39.0928C62.8884 39.1667 63.0362 39.3145 63.1101 39.3884C63.5535 39.8318 64.0708 40.2752 64.5142 40.7186C67.9875 43.8963 71.4607 47.2956 73.2343 51.5818Z" fill="#F9B54C"/>
<path d="M65.6965 59.2673C65.6226 60.1541 65.1053 60.967 64.2924 61.3365C63.4795 61.706 62.5189 61.706 61.7799 61.1887C62.3711 62.0755 61.7799 63.3317 60.8192 63.7751C59.8585 64.2185 58.75 64.1446 57.7154 63.9968C58.0849 64.2185 58.1588 64.8097 57.9371 65.1792C57.7154 65.5487 57.272 65.7704 56.8286 65.9182C55.8679 66.2138 54.7594 66.2138 53.7987 65.9921C54.2421 66.3616 53.9465 67.1745 53.5031 67.544C52.2468 68.7264 50.3994 69.0959 48.6997 68.7264C47 68.4308 45.4481 67.544 43.9701 66.6572C42.4921 65.7704 41.0141 64.8836 39.3144 64.3663C37.6887 63.9229 35.9151 63.9229 34.2154 63.4795C31.6289 62.8144 29.4858 61.0409 27.4905 59.3412C27.121 59.0456 26.7515 58.6761 26.5298 58.2327C26.382 57.7154 26.5298 57.1981 26.6776 56.7547C27.7122 53.2814 28.8946 49.8821 30.3726 46.5566C30.6682 45.8176 31.0377 45.0786 31.555 44.4135C32.4418 43.2311 33.9937 42.4921 34.0676 41.088C34.1415 40.5707 34.2893 40.0534 34.5849 39.6101C34.6588 39.4623 34.8066 39.3884 34.8805 39.2406C35.0283 39.1667 35.1761 39.0928 35.3239 39.0928C36.9497 38.6494 38.5755 38.206 40.2012 37.7626C41.4575 37.3931 42.7138 37.0975 44.044 37.1714C45.0047 37.2453 45.9654 37.6148 46.7783 38.1321C46.0393 38.2799 45.3003 38.5016 44.6352 38.8711C43.8962 39.2406 43.305 39.7579 42.566 40.0534C41.7531 40.349 40.9402 40.4229 40.2012 40.8663C38.4277 41.9009 38.5016 44.5613 37.0975 46.0393C36.9497 46.261 36.728 46.4088 36.5802 46.6305C36.3585 47.0739 36.5802 47.5912 36.9497 47.8868C37.3192 48.1824 37.8365 48.2563 38.2799 48.3302C39.7578 48.478 41.2358 48.0346 42.4921 47.1478C43.2311 46.6305 43.8962 45.8915 44.6352 45.3003C45.3742 44.7091 46.261 44.2657 47.2217 44.4135C48.478 44.5613 49.8821 44.4874 50.7688 45.3742C52.9119 47.4434 55.6462 48.6997 58.011 50.4733C60.1541 52.1729 61.9277 54.3899 63.7751 56.3852C64.2185 56.9025 64.8097 57.4198 65.4009 57.6415C65.6965 58.1588 65.7704 58.6761 65.6965 59.2673Z" fill="#FFD05B"/>
<path d="M65.6965 59.2673C65.6226 60.1541 65.1053 60.967 64.2924 61.3365C63.6273 61.6321 62.8884 61.706 62.2233 61.4104C62.0755 61.3365 61.9277 61.2626 61.7799 61.1887C61.9277 61.3365 62.0016 61.5582 62.0016 61.7799C62.0755 62.5188 61.5582 63.4056 60.8192 63.7751C60.0063 64.1446 59.0456 64.1446 58.1588 64.0707C58.011 64.0707 57.8632 64.0707 57.7154 63.9968C57.9371 64.1446 58.0849 64.4402 58.0849 64.7358C58.0849 64.8836 58.011 65.1053 57.9371 65.2531C57.7154 65.6226 57.272 65.8443 56.8286 65.9921C55.8679 66.2877 54.8333 66.2877 53.8726 66.066H53.7987C54.0204 66.2138 54.0943 66.5094 54.0204 66.7311C53.9465 67.0267 53.7987 67.3962 53.5031 67.6179C52.2468 68.8003 50.3994 69.1698 48.6997 68.8003C47 68.5047 45.4481 67.6179 43.9701 66.7311C42.4921 65.8443 41.0141 64.8836 39.3144 64.4402C37.6887 63.9968 35.9151 63.9968 34.2154 63.5534C31.6289 62.8883 29.4858 61.1148 27.4905 59.4151C27.121 59.1195 26.7515 58.75 26.5298 58.3066C26.382 57.8632 26.5298 57.3459 26.6776 56.8286C27.7122 53.3553 28.8946 49.956 30.3726 46.6305C30.6682 45.8915 31.0377 45.1525 31.555 44.4874C32.4418 43.305 33.9937 42.566 34.0676 41.1619C34.1415 40.6446 34.2893 40.1273 34.5849 39.6839C34.6588 39.5361 34.8066 39.4622 34.8805 39.3144C35.0283 39.2405 35.1761 39.1666 35.3239 39.1666C36.9497 38.7232 38.5755 38.2799 40.2012 37.8365C41.4575 37.467 42.7138 37.1714 44.044 37.2453C45.0047 37.3192 45.9654 37.6887 46.7783 38.206C46.0393 38.3537 45.3003 38.5754 44.6352 38.9449C43.9701 39.3144 43.305 39.8317 42.566 40.1273C41.7531 40.4229 40.9402 40.4968 40.2012 40.9402C38.4277 41.9748 38.5016 44.6352 37.0975 46.1132C36.9497 46.3349 36.728 46.4827 36.5802 46.7044C36.3585 47.1478 36.5802 47.6651 36.9497 47.9607C37.3192 48.2563 37.8365 48.3302 38.2799 48.4041C39.7578 48.5519 41.2358 48.1085 42.4921 47.2217C43.2311 46.7044 43.8962 45.9654 44.6352 45.3742C45.3742 44.783 46.261 44.3396 47.2217 44.4874C48.478 44.6352 49.8821 44.5613 50.7688 45.4481C52.9119 47.5173 55.6462 48.6997 58.011 50.5471C60.1541 52.2468 61.9277 54.4638 63.7751 56.4591C64.2185 56.9764 64.8097 57.4937 65.4009 57.7154C65.6965 58.1588 65.7704 58.6761 65.6965 59.2673Z" fill="#FFD05B"/>
<path d="M35.989 66.4355C35.989 65.9182 35.989 65.4748 36.1368 65.0314C36.2107 64.8097 36.3585 64.6619 36.5063 64.5141C36.728 64.2185 37.0975 63.9229 37.3931 63.7012C38.206 63.2578 39.1667 63.2578 40.1274 63.2578C40.2752 63.2578 40.423 63.2578 40.5708 63.3317C40.8664 63.4795 41.0881 63.849 41.3837 63.9968C41.4576 64.0707 41.6054 64.1446 41.6793 64.2185C41.901 64.3663 41.9749 64.6619 41.9749 64.8836C42.0488 65.9921 41.5315 67.1006 40.6447 67.7657C39.7579 68.4308 38.5016 68.5786 37.467 68.1352C37.1714 68.0613 36.9497 67.9135 36.6541 67.7657C36.5063 67.6918 36.2846 67.544 36.1368 67.3962C36.0629 67.1745 35.989 66.805 35.989 66.4355Z" fill="#F9B54C"/>
<path d="M47.739 68.5786C47.4434 68.7264 47.1478 68.7264 46.8522 68.8742C46.7044 68.9481 46.5566 69.022 46.4827 69.0959C46.1132 69.2437 45.7437 69.2437 45.3742 69.2437C44.8569 69.2437 44.3396 69.3176 43.8962 69.1698C43.3789 69.0959 42.9355 68.8742 42.566 68.5047C42.3443 68.283 42.1965 67.9135 42.1226 67.6179C42.0487 67.4701 42.0487 67.3223 42.0487 67.1745C42.0487 66.805 42.1965 66.5094 42.4182 66.2138C42.8616 65.6965 43.4528 65.4009 44.044 65.1053C44.4874 64.8836 44.8569 64.6619 45.3003 64.4402C45.6698 64.2185 46.1132 63.9968 46.5566 63.849C47.2217 63.6273 47.9607 63.7012 48.5518 63.9968C49.143 64.2924 49.5864 64.9575 49.5864 65.6226C49.5864 66.2138 49.2908 66.805 48.9952 67.3223C48.5518 67.8396 48.2562 68.3569 47.739 68.5786Z" fill="#F9B54C"/>
<path d="M50.7689 69.9827C50.695 70.1305 50.5472 70.3522 50.4733 70.5C50.1777 70.7956 49.8821 70.8695 49.5126 71.0173C48.9214 71.1651 48.3302 71.3129 47.739 71.3129C47.1478 71.239 46.5566 71.0173 46.1872 70.5739C46.0394 70.4261 45.9655 70.2783 45.9655 70.0566C45.9655 69.6871 46.1872 69.3915 46.4827 69.1698C47.2217 68.5786 48.1824 68.4308 48.8475 67.8397C48.9953 67.6919 49.1431 67.544 49.3648 67.3963C49.5126 67.3224 49.6604 67.3224 49.8082 67.3224C50.1038 67.2485 50.4733 67.2485 50.7689 67.3963C51.0645 67.544 51.2123 67.7657 51.3601 67.9874C51.434 68.5786 51.1384 69.3915 50.7689 69.9827Z" fill="#F9B54C"/>
<path d="M61.7799 61.1887C61.9277 61.3365 62.0016 61.5582 62.0016 61.7799C61.7799 61.706 61.6321 61.4843 61.4104 61.2626C60.228 59.9324 58.4544 59.3412 57.1242 58.2327C56.6808 57.8632 56.2374 57.4198 55.794 57.1242C55.4245 56.8286 54.9811 56.6069 54.5377 56.3113C53.9465 55.9418 53.3553 55.4245 52.7641 54.9811C52.2468 54.5377 51.6556 54.0204 51.6556 53.3553V53.2815C51.6556 53.2076 51.7295 53.2076 51.8034 53.2076C52.3207 53.1337 52.7641 53.3554 53.2075 53.6509C53.577 53.9465 53.8726 54.3899 54.2421 54.7594C55.2028 55.794 56.3113 56.6069 57.4937 57.4198C58.5283 58.1588 59.5629 58.8239 60.5975 59.5629C61.0409 59.8585 61.4104 60.1541 61.7799 60.5236C62.0016 60.8192 62.2233 61.1148 62.2972 61.4104C62.0755 61.3365 61.9277 61.2626 61.7799 61.1887Z" fill="#F9B54C"/>
<path d="M22.6132 54.2421C22.9088 51.1383 24.3868 48.1824 25.8648 45.3742C26.7516 43.6006 27.7123 41.827 28.5991 39.9795C28.8207 39.5361 29.0424 39.0927 29.338 38.7971C30.2248 37.7626 31.8506 37.467 33.1069 38.1321C33.3286 38.2799 33.6242 38.4277 33.772 38.7232C33.9198 38.9449 33.9198 39.2405 33.9198 39.4622C33.9937 40.349 34.0676 41.2358 33.9198 42.0487C33.772 42.7877 33.4764 43.4528 33.1069 44.1179C31.1116 48.1824 29.1163 52.2468 27.1211 56.3113C26.9733 56.6069 26.8255 56.9025 26.6038 57.1981C25.7909 58.1588 24.1651 58.2327 23.2783 57.3459C22.5393 56.533 22.4654 55.3506 22.6132 54.2421Z" fill="#E6E9EE"/>
<path d="M30.5204 38.945C28.5991 45.522 26.1604 52.0252 23.0566 58.1588C22.9088 58.4544 22.6871 58.8239 22.3176 58.9717C22.0959 59.0456 21.8003 58.9717 21.5786 58.9717C20.0267 58.8239 18.6226 59.9324 16.9969 60.228C14.9277 60.5236 12.9324 59.3412 11.1588 58.2327C7.68553 56.0157 4.06447 54.0205 0.295597 52.173C0.147799 50.4733 0 48.7736 0 47.0739C0 38.5016 2.29088 30.5205 6.28145 23.5739C7.75943 24.3868 9.16352 25.2736 10.6415 26.0865C11.8239 26.7516 13.0063 27.4906 14.1887 28.1557C16.0362 29.2642 17.9575 30.3727 19.6572 31.8506C20.9135 32.8852 22.0959 34.1415 23.7217 34.4371C24.3868 34.511 25.0519 34.4371 25.717 34.511C27.1211 34.6588 28.3774 35.6195 29.4858 36.5063C29.8553 36.8019 30.2987 37.1714 30.4465 37.6887C30.7421 38.0582 30.5943 38.5016 30.5204 38.945Z" fill="#324A5E"/>
<path d="M65.6965 36.728C65.8443 36.5063 65.9921 36.2846 66.2138 36.2107C66.3616 36.1368 66.5094 36.2107 66.6572 36.2107C67.6179 36.5063 68.1352 37.6147 68.7264 38.4276C69.3176 39.2405 70.2044 39.8317 70.9434 40.4968C72.9387 42.3443 74.2689 44.9308 75.4513 47.3695C76.1163 48.6997 76.7814 50.1037 77.5204 51.4339C78.3333 53.1336 79.2201 54.8333 79.4418 56.6808C78.2594 56.4591 76.9292 57.0503 75.8947 56.533C75.4513 56.3113 75.1557 55.9418 74.8601 55.5723C73.456 53.7987 72.2736 51.8034 71.239 49.8082C70.3522 48.0346 69.5393 46.1132 67.9874 44.8569C67.3962 44.3396 66.6572 43.9701 66.2138 43.4528C65.9182 43.0833 65.6965 42.6399 65.4009 42.2704C64.588 40.8663 63.4796 39.61 62.2233 38.5015C63.5535 38.5015 64.9575 37.8364 65.6965 36.728Z" fill="#E6E9EE"/>
<path d="M94 47C94 48.1824 93.9261 49.2909 93.8522 50.3994C90.0834 52.7641 86.5362 55.5723 83.0629 58.4544C82.3978 59.0456 81.5849 59.6368 80.6981 59.3412C80.3286 59.1934 80.033 58.9717 79.8114 58.6761C78.5551 57.272 78.0378 55.2767 77.2249 53.577C76.4859 52.0251 75.4513 50.6211 74.4906 49.217L65.7705 37.1714C65.5488 36.8758 65.3271 36.5063 65.401 36.1368C65.4749 35.8412 65.7705 35.6934 65.9922 35.4717C67.1746 34.6588 68.4308 33.772 69.6132 32.9591C70.8695 32.0723 72.0519 31.1855 73.3821 30.5204C74.6384 29.8553 75.8947 29.338 77.2249 28.8207C80.772 27.2689 84.1714 25.2736 87.5708 23.3522C91.6353 30.2987 94 38.3538 94 47Z" fill="#324A5E"/>
<path d="M58.0849 64.7358C57.8632 64.588 57.5676 64.4402 57.3459 64.2924C56.6069 63.849 55.868 63.3317 55.129 62.8144C54.9073 62.6666 54.6117 62.5188 54.39 62.2971C53.2815 61.5581 52.173 60.893 51.0645 60.154C50.5472 59.7845 50.0299 59.4889 49.6604 58.9717C50.5472 58.8239 51.434 59.1194 52.173 59.6367C52.912 60.0801 53.5771 60.6713 54.2422 61.2625C54.9073 61.7798 55.5724 62.2232 56.2374 62.5927C56.7547 62.8883 57.272 63.11 57.7154 63.4795C57.9371 63.6273 58.0849 63.849 58.3066 64.0707C58.1588 64.0707 58.011 64.0707 57.8632 63.9968C58.011 64.1446 58.0849 64.4402 58.0849 64.7358Z" fill="#F9B54C"/>
<path d="M53.9466 66.7311C53.2076 66.4355 52.4686 66.1399 51.7296 65.8443C51.3601 65.6965 50.9906 65.5487 50.6211 65.327C50.3255 65.1053 50.0299 64.8836 49.7343 64.588C48.4041 63.4795 46.8522 62.371 45.1525 62.4449C44.9308 62.4449 44.7091 62.4449 44.5613 62.2971C44.4135 62.1493 44.5613 61.8537 44.7091 61.7059C44.8569 61.5581 45.1525 61.5581 45.3742 61.5581C46.0393 61.5581 46.7044 61.7059 47.3695 62.0015C48.2563 62.371 49.0692 63.0361 49.956 63.4795C50.3255 63.6273 50.7689 63.7751 51.1384 63.9968C52.173 64.4402 53.0598 65.1053 53.8727 65.9182H53.7988C53.9466 66.2138 54.0205 66.4355 53.9466 66.7311Z" fill="#F9B54C"/>
<path d="M39.9057 45.0047C39.8318 45.3003 39.684 45.522 39.5362 45.7437C39.0928 46.3349 38.5755 46.7783 37.9843 47.0739C37.7626 47.1478 37.6148 47.2217 37.3931 47.2217C37.0975 47.2217 36.8758 47 36.8019 46.7783C36.8019 46.7044 36.728 46.6305 36.728 46.5566C36.8019 46.3349 37.0236 46.1871 37.1714 46.0393C37.8365 45.3742 38.1321 44.4135 38.5016 43.5267C38.5016 43.4528 38.5016 43.4528 38.5755 43.3789C38.6494 43.305 38.7972 43.305 38.8711 43.305C39.0189 43.305 39.0928 43.4528 39.1667 43.5267C39.6101 43.9701 39.9796 44.4874 39.9057 45.0047Z" fill="#FFFEFF"/>
<path d="M46.335 65.2531C46.2611 64.9575 46.4089 64.588 46.7045 64.3663C47.074 64.0707 47.5174 63.849 47.9608 63.849C48.4042 63.849 48.9215 64.1446 49.0693 64.588C49.2171 65.0314 49.0693 65.6226 48.8476 66.066C48.7737 66.2138 48.6998 66.2877 48.6259 66.3616C48.552 66.4354 48.4042 66.4354 48.2564 66.4354C47.9608 66.4354 47.6652 66.5093 47.3696 66.4354C47.074 66.3615 46.7784 66.1398 46.7045 65.8443" fill="#FFFEFF"/>
<path d="M51.2123 67.9135C51.0645 67.544 50.7689 67.3223 50.4733 67.2484C49.8821 67.1006 49.2171 67.6179 49.0693 68.283C48.9954 68.5786 49.0693 68.9481 49.3649 69.0959C49.4388 69.0959 49.5126 69.1698 49.5865 69.1698L51.0645 69.022C51.2862 68.6525 51.2862 68.283 51.2123 67.9135Z" fill="#FFFEFF"/>
</g>
<defs>
<clipPath id="clip0">
<rect width="94" height="94" fill="white"/>
</clipPath>
</defs>
</svg>
