<svg width="25" height="25" viewBox="0 0 25 25" fill="none" xmlns="http://www.w3.org/2000/svg">
<path d="M21.9112 23.1172H3.0882C2.87644 23.117 2.6734 23.0328 2.52367 22.8831C2.37393 22.7333 2.28973 22.5303 2.28955 22.3186V9.8841C2.28955 9.7945 2.32514 9.70857 2.3885 9.64521C2.45186 9.58186 2.53779 9.54626 2.62739 9.54626H22.372C22.4616 9.54626 22.5475 9.58186 22.6109 9.64521C22.6742 9.70857 22.7098 9.7945 22.7098 9.8841V22.3186C22.7096 22.5303 22.6254 22.7333 22.4757 22.8831C22.326 23.0328 22.1229 23.117 21.9112 23.1172ZM2.96523 10.2219V22.3186C2.96523 22.3512 2.97818 22.3824 3.00124 22.4055C3.02431 22.4286 3.05559 22.4415 3.0882 22.4415H21.9112C21.9273 22.4415 21.9433 22.4383 21.9582 22.4322C21.9732 22.426 21.9867 22.4169 21.9981 22.4055C22.0095 22.3941 22.0186 22.3805 22.0248 22.3656C22.031 22.3507 22.0341 22.3347 22.0341 22.3186V10.2219H2.96523Z" fill="black"/>
<path d="M13.936 23.1172H11.0644C10.9748 23.1172 10.8889 23.0816 10.8255 23.0183C10.7622 22.9549 10.7266 22.869 10.7266 22.7794V9.8841C10.7266 9.7945 10.7622 9.70857 10.8255 9.64521C10.8889 9.58186 10.9748 9.54626 11.0644 9.54626H13.936C14.0256 9.54626 14.1116 9.58186 14.1749 9.64521C14.2383 9.70857 14.2739 9.7945 14.2739 9.8841V22.7794C14.2739 22.869 14.2383 22.9549 14.1749 23.0183C14.1116 23.0816 14.0256 23.1172 13.936 23.1172ZM11.4022 22.4415H13.5982V10.2219H11.4022V22.4415Z" fill="black"/>
<path d="M23.5045 10.2221H1.49571C1.27834 10.2218 1.06994 10.1353 0.91623 9.9816C0.762521 9.82789 0.676049 9.6195 0.675781 9.40212V6.92577C0.676049 6.70839 0.762521 6.49999 0.91623 6.34628C1.06994 6.19257 1.27834 6.1061 1.49571 6.10583H23.5045C23.7219 6.1061 23.9303 6.19257 24.084 6.34628C24.2377 6.49999 24.3242 6.70839 24.3244 6.92577V9.40212C24.3242 9.6195 24.2377 9.82789 24.084 9.9816C23.9303 10.1353 23.7219 10.2218 23.5045 10.2221ZM1.49571 6.78252C1.45766 6.78261 1.42117 6.7977 1.39416 6.82451C1.36716 6.85133 1.35181 6.88771 1.35146 6.92577V9.40212C1.35155 9.44035 1.36677 9.47699 1.39381 9.50403C1.42084 9.53106 1.45748 9.54629 1.49571 9.54638H23.5045C23.5427 9.54629 23.5794 9.53106 23.6064 9.50403C23.6334 9.47699 23.6487 9.44035 23.6488 9.40212V6.92577C23.6487 6.88754 23.6334 6.8509 23.6064 6.82386C23.5794 6.79683 23.5427 6.7816 23.5045 6.78151L1.49571 6.78252Z" fill="black"/>
<path d="M12.4994 6.78245C12.4468 6.78244 12.3949 6.77014 12.3478 6.74652C12.3008 6.72291 12.26 6.68864 12.2285 6.64644C12.1971 6.60424 12.176 6.55528 12.1668 6.50347C12.1576 6.45165 12.1607 6.39841 12.1757 6.34799C12.2771 6.01353 13.1767 3.06049 14.0555 2.36488C14.5199 1.99812 15.1109 1.83053 15.6987 1.89887C16.2866 1.96721 16.8233 2.26589 17.1913 2.72941C17.3733 2.95924 17.5082 3.22266 17.5884 3.50464C17.6686 3.78662 17.6924 4.08163 17.6585 4.37282C17.6247 4.66401 17.5338 4.94569 17.3911 5.20176C17.2484 5.45782 17.0566 5.68327 16.8268 5.86522C15.9484 6.56083 12.8676 6.76117 12.5193 6.78177L12.4994 6.78245ZM15.4386 2.55948C15.0882 2.55913 14.7481 2.67751 14.4737 2.89529C14.0028 3.26691 13.3588 4.88178 12.9697 6.07096C14.2173 5.96455 15.9359 5.70779 16.4065 5.33515C16.7301 5.0788 16.9386 4.70439 16.9862 4.29428C17.0338 3.88418 16.9165 3.47197 16.6602 3.14833C16.5144 2.96418 16.3286 2.81548 16.1171 2.71343C15.9055 2.61138 15.6735 2.55863 15.4386 2.55914V2.55948Z" fill="black"/>
<path d="M12.5004 6.78243H12.4805C12.1322 6.76182 9.05146 6.56148 8.17309 5.86587C7.70882 5.49838 7.40956 4.96151 7.34114 4.37337C7.27271 3.78522 7.44073 3.19399 7.80822 2.72973C8.17572 2.26546 8.71259 1.9662 9.30073 1.89778C9.88887 1.82935 10.4801 1.99737 10.9444 2.36486C11.8227 3.06047 12.7244 6.01351 12.8241 6.34797C12.8391 6.39839 12.8422 6.45163 12.833 6.50344C12.8239 6.55526 12.8027 6.60422 12.7713 6.64641C12.7399 6.68861 12.699 6.72288 12.652 6.7465C12.605 6.77011 12.5531 6.78241 12.5004 6.78243ZM9.56126 2.55946C9.32617 2.55879 9.094 2.61147 8.88222 2.71353C8.67045 2.81559 8.48458 2.96436 8.33863 3.14865C8.0823 3.47229 7.96503 3.8845 8.01261 4.2946C8.06019 4.7047 8.26872 5.07911 8.59234 5.33547C9.06329 5.70709 10.7819 5.96486 12.0292 6.07162C11.6393 4.88141 10.9954 3.26756 10.5251 2.89594C10.2511 2.67801 9.91137 2.55929 9.56126 2.55912V2.55946Z" fill="black"/>
<path d="M14.5269 8.80847C14.4825 8.80859 14.4386 8.7999 14.3976 8.78291C14.3566 8.76592 14.3193 8.74096 14.288 8.70948L12.4999 6.9213L10.7117 8.70948C10.648 8.77102 10.5626 8.80507 10.4741 8.8043C10.3855 8.80353 10.3007 8.768 10.2381 8.70536C10.1755 8.64273 10.1399 8.55799 10.1392 8.46941C10.1384 8.38083 10.1725 8.29549 10.234 8.23178L12.261 6.20475C12.3244 6.14141 12.4103 6.10583 12.4999 6.10583C12.5895 6.10583 12.6754 6.14141 12.7387 6.20475L14.7658 8.23178C14.813 8.27902 14.8451 8.33921 14.8582 8.40474C14.8712 8.47026 14.8645 8.53818 14.839 8.5999C14.8134 8.66163 14.7701 8.71438 14.7146 8.75151C14.659 8.78863 14.5937 8.80845 14.5269 8.80847Z" fill="black"/>
</svg>
