<svg width="24" height="24" viewBox="0 0 24 24" fill="none" xmlns="http://www.w3.org/2000/svg">
<path d="M21.929 20.243L20.2109 17.381C19.4189 16.06 18.9999 14.548 18.9999 13.007V10.5C18.9999 6.641 15.8589 3.5 11.9999 3.5C8.14096 3.5 4.99996 6.641 4.99996 10.5V13.007C4.99996 14.548 4.58095 16.06 3.78895 17.381L2.07093 20.243C1.97793 20.397 1.97592 20.59 2.06395 20.746C2.15296 20.903 2.31993 21 2.49993 21H21.4999C21.6799 21 21.8469 20.903 21.9359 20.746C22.0239 20.59 22.022 20.397 21.929 20.243ZM3.38296 20L4.64596 17.895C5.53195 16.419 5.99995 14.729 5.99995 13.007V10.5C5.99995 7.19098 8.69095 4.49998 11.9999 4.49998C15.3089 4.49998 17.9999 7.19098 17.9999 10.5V13.007C17.9999 14.729 18.4679 16.419 19.3529 17.895L20.6169 20H3.38296Z" fill="black"/>
<path d="M11.9995 0C10.8965 0 9.99951 0.897 9.99951 2.00002V4.00003C9.99951 4.27598 10.2235 4.5 10.4995 4.5C10.7755 4.5 10.9995 4.27598 10.9995 3.99998V2.00002C10.9995 1.44802 11.4475 1.00003 11.9995 1.00003C12.5515 1.00003 12.9995 1.44802 12.9995 2.00002V4.00003C12.9995 4.27598 13.2235 4.5 13.4995 4.5C13.7755 4.5 13.9995 4.27598 13.9995 3.99998V2.00002C13.9995 0.897 13.1025 0 11.9995 0Z" fill="black"/>
<path d="M14.164 20.247C14.023 20.009 13.718 19.931 13.479 20.068C13.24 20.208 13.1601 20.515 13.3 20.753C13.43 20.974 13.501 21.239 13.501 21.5C13.501 22.327 12.828 23 12.001 23C11.174 23 10.501 22.327 10.501 21.5C10.501 21.239 10.572 20.974 10.702 20.753C10.841 20.514 10.761 20.208 10.523 20.068C10.282 19.931 9.97798 20.009 9.83802 20.247C9.617 20.625 9.5 21.058 9.5 21.5C9.50005 22.879 10.621 24 12 24C13.3791 24 14.5 22.879 14.502 21.5C14.502 21.058 14.385 20.625 14.164 20.247Z" fill="black"/>
</svg>
