<svg width="72" height="72" viewBox="0 0 72 72" fill="none" xmlns="http://www.w3.org/2000/svg">
<path d="M36.1406 0C16.355 0 0 16.0734 0 35.8594C0 55.6453 16.355 72 36.1406 72C55.9263 72 72 55.6453 72 35.8594C72 16.0734 55.9263 0 36.1406 0Z" fill="#FEDB41"/>
<path d="M72 35.8594C72 55.6453 55.9263 72 36.1406 72V0C55.9263 0 72 16.0734 72 35.8594Z" fill="#FFCC33"/>
<path d="M36.1406 8.4375C21.0372 8.4375 8.4375 20.7561 8.4375 35.8594C8.4375 50.9626 21.0372 63.5625 36.1406 63.5625C51.244 63.5625 63.5625 50.9626 63.5625 35.8594C63.5625 20.7561 51.244 8.4375 36.1406 8.4375Z" fill="#FEA832"/>
<path d="M63.5625 35.8594C63.5625 50.9626 51.244 63.5625 36.1406 63.5625V8.4375C51.244 8.4375 63.5625 20.7561 63.5625 35.8594Z" fill="#FE9923"/>
<path d="M40.3594 33.75H38.25V25.3125H40.3594C41.5408 25.3125 42.4688 26.2405 42.4688 27.4219C42.4688 30.2061 46.6875 30.2061 46.6875 27.4219C46.6875 23.9202 43.8612 21.0938 40.3594 21.0938H38.25V18.9844C38.25 17.592 37.1953 16.875 36.1406 16.875C35.0859 16.875 34.0312 17.592 34.0312 18.9844V21.0938H31.6406C28.1388 21.0938 25.3125 23.9202 25.3125 27.4219V31.6406C25.3125 35.1423 28.1388 37.9688 31.6406 37.9688H34.0312V46.6875H31.6406C30.4592 46.6875 29.5312 45.7595 29.5312 44.5781C29.5312 41.7939 25.3125 41.7939 25.3125 44.5781C25.3125 48.0798 28.1388 50.9062 31.6406 50.9062H34.0312V53.0156C34.0312 54.408 35.0859 55.125 36.1406 55.125C37.1953 55.125 38.25 54.408 38.25 53.0156V50.9062H40.3594C43.8612 50.9062 46.6875 48.0798 46.6875 44.5781V40.0781C46.6875 36.5764 43.8612 33.75 40.3594 33.75ZM34.0312 33.75H31.6406C30.4592 33.75 29.5312 32.822 29.5312 31.6406V27.4219C29.5312 26.2405 30.4592 25.3125 31.6406 25.3125H34.0312V33.75ZM42.4688 44.5781C42.4688 45.7595 41.5408 46.6875 40.3594 46.6875H38.25V37.9688H40.3594C41.5408 37.9688 42.4688 38.8967 42.4688 40.0781V44.5781Z" fill="#FEDB41"/>
<path d="M40.3594 33.75H38.25V25.3125H40.3594C41.5408 25.3125 42.4688 26.2405 42.4688 27.4219C42.4688 30.2061 46.6875 30.2061 46.6875 27.4219C46.6875 23.9202 43.8612 21.0938 40.3594 21.0938H38.25V18.9844C38.25 17.592 37.1953 16.875 36.1406 16.875V55.125C37.1953 55.125 38.25 54.408 38.25 53.0156V50.9062H40.3594C43.8612 50.9062 46.6875 48.0798 46.6875 44.5781V40.0781C46.6875 36.5764 43.8612 33.75 40.3594 33.75ZM42.4688 44.5781C42.4688 45.7595 41.5408 46.6875 40.3594 46.6875H38.25V37.9688H40.3594C41.5408 37.9688 42.4688 38.8967 42.4688 40.0781V44.5781Z" fill="#FFCC33"/>
</svg>
