<svg width="85" height="85" viewBox="0 0 85 85" fill="none" xmlns="http://www.w3.org/2000/svg">
<path d="M75.4752 47.5846L69.0625 41.1719H53.125V70.3906C53.125 73.3246 55.5035 75.7031 58.4375 75.7031V78.3594H77.0312V51.3412C77.0312 49.9322 76.4716 48.5808 75.4752 47.5846Z" fill="#F0915A"/>
<path d="M47.8125 74.375H7.96875C6.50167 74.375 5.3125 73.1858 5.3125 71.7188V23.9062C5.3125 22.4392 6.50167 21.25 7.96875 21.25H47.8125C49.2796 21.25 50.4688 22.4392 50.4688 23.9062V71.7188C50.4688 73.1858 49.2796 74.375 47.8125 74.375Z" fill="#E64178"/>
<path d="M39.8438 74.375H7.96875C6.50167 74.375 5.3125 73.1858 5.3125 71.7188V23.9062C5.3125 22.4392 6.50167 21.25 7.96875 21.25H39.8438C41.3108 21.25 42.5 22.4392 42.5 23.9062V71.7188C42.5 73.1858 41.3108 74.375 39.8438 74.375Z" fill="#FF6E91"/>
<path d="M34.5312 34.5312H13.2812C11.8142 34.5312 10.625 33.3421 10.625 31.875V29.2188C10.625 27.7517 11.8142 26.5625 13.2812 26.5625H34.5312C35.9983 26.5625 37.1875 27.7517 37.1875 29.2188V31.875C37.1875 33.3421 35.9983 34.5312 34.5312 34.5312Z" fill="#E64178"/>
<path d="M69.0625 26.5625H50.4688C49.0017 26.5625 47.8125 27.7517 47.8125 29.2188V66.4062C47.8125 67.8733 49.0017 69.0625 50.4688 69.0625H69.0625C70.5296 69.0625 71.7188 67.8733 71.7188 66.4062V29.2188C71.7188 27.7517 70.5296 26.5625 69.0625 26.5625Z" fill="#78AF41"/>
<path d="M63.75 29.2188H55.7812C55.0478 29.2188 54.4531 29.8134 54.4531 30.5469C54.4531 32.014 53.264 33.2031 51.7969 33.2031C51.0634 33.2031 50.4688 33.7978 50.4688 34.5312V61.0938C50.4688 61.8272 51.0634 62.4219 51.7969 62.4219C53.264 62.4219 54.4531 63.611 54.4531 65.0781C54.4531 65.8116 55.0478 66.4062 55.7812 66.4062H63.75C64.4835 66.4062 65.0781 65.8116 65.0781 65.0781C65.0781 63.611 66.2673 62.4219 67.7344 62.4219C68.4678 62.4219 69.0625 61.8272 69.0625 61.0938V34.5312C69.0625 33.7978 68.4678 33.2031 67.7344 33.2031C66.2673 33.2031 65.0781 32.014 65.0781 30.5469C65.0781 29.8134 64.4835 29.2188 63.75 29.2188Z" fill="#466932"/>
<path d="M59.7656 54.0104C63.4331 54.0104 66.4062 51.0373 66.4062 47.3698C66.4062 43.7022 63.4331 40.7291 59.7656 40.7291C56.0981 40.7291 53.125 43.7022 53.125 47.3698C53.125 51.0373 56.0981 54.0104 59.7656 54.0104Z" fill="#78AF41"/>
<path d="M15.9375 31.875C14.4704 31.875 13.2812 30.6858 13.2812 29.2188V26.5625H18.5938V29.2188C18.5938 30.6858 17.4046 31.875 15.9375 31.875Z" fill="#F0915A"/>
<path d="M21.25 31.875C19.7829 31.875 18.5938 30.6858 18.5938 29.2188V26.5625H23.9062V29.2188C23.9062 30.6858 22.7171 31.875 21.25 31.875Z" fill="#F0915A"/>
<path d="M26.5625 31.875C25.0954 31.875 23.9062 30.6858 23.9062 29.2188V26.5625H29.2188V29.2188C29.2188 30.6858 28.0296 31.875 26.5625 31.875Z" fill="#F0915A"/>
<path d="M31.875 31.875C30.4079 31.875 29.2188 30.6858 29.2188 29.2188V26.5625H34.5312V29.2188C34.5312 30.6858 33.3421 31.875 31.875 31.875Z" fill="#F0915A"/>
<path d="M15.9375 6.64062V10.625C14.4706 10.625 13.2812 11.8143 13.2812 13.2812V26.5625H34.5312V6.64062H15.9375Z" fill="#FAB991"/>
<path d="M34.5312 6.64062H25.2344C25.2344 8.84116 27.0182 10.625 29.2188 10.625H34.5312V6.64062Z" fill="#F0915A"/>
<path d="M39.8438 21.25H34.5312V10.625C37.4652 10.625 39.8438 13.0035 39.8438 15.9375V21.25Z" fill="#F0915A"/>
<path d="M34.5312 6.64062H15.9375C14.4704 6.64062 13.2812 5.45146 13.2812 3.98438V2.65625H37.1875V3.98438C37.1875 5.45146 35.9983 6.64062 34.5312 6.64062Z" fill="#555A6E"/>
<path d="M34.5312 6.64062H25.2344V2.65625H37.1875V3.98438C37.1875 5.45146 35.9983 6.64062 34.5312 6.64062Z" fill="#463C4B"/>
<path d="M77.0312 78.3594H58.4375C56.9704 78.3594 55.7812 79.5485 55.7812 81.0156V82.3438H79.6875V81.0156C79.6875 79.5485 78.4983 78.3594 77.0312 78.3594Z" fill="#555A6E"/>
<path d="M77.0312 78.3594H67.7344V82.3438H79.6875V81.0156C79.6875 79.5485 78.4983 78.3594 77.0312 78.3594Z" fill="#463C4B"/>
<path d="M69.6127 51.0188C68.5754 49.9815 66.8935 49.9815 65.8562 51.0188L65.7357 51.1393C63.661 53.214 63.661 56.5777 65.7357 58.6524L67.7344 60.651V66.4063C67.7344 71.5408 71.8967 75.7032 77.0312 75.7032V58.4375L69.6127 51.0188Z" fill="#FAB991"/>
<path d="M69.9473 51.3541L69.6119 51.6895C68.5747 52.7267 68.5747 54.4087 69.6119 55.4459L69.8935 55.7275C70.4121 56.2461 71.2532 56.2461 71.7718 55.7275L73.0463 54.4531L69.9473 51.3541Z" fill="#F0915A"/>
</svg>
