<svg width="33" height="28" viewBox="0 0 33 28" fill="none" xmlns="http://www.w3.org/2000/svg">
<path d="M31.9287 4.96069C31.5017 4.43604 30.867 4.13519 30.1876 4.13519H5.92443L5.70776 2.59322C5.55432 1.50132 4.60134 0.677856 3.49099 0.677856H1.5887C1.03934 0.677856 0.593933 1.12015 0.593933 1.66567C0.593933 2.21119 1.03934 2.65348 1.5887 2.65348H3.49099C3.61435 2.65348 3.72029 2.74497 3.73726 2.86629L6.42244 21.976C6.57588 23.068 7.52886 23.8914 8.63921 23.8914H9.71784C9.60742 24.2006 9.54674 24.5329 9.54674 24.8792C9.54674 26.5132 10.8855 27.8426 12.531 27.8426C14.1766 27.8426 15.5153 26.5132 15.5153 24.8792C15.5153 24.5329 15.4546 24.2006 15.3442 23.8914H20.6602C20.5498 24.2006 20.4891 24.5329 20.4891 24.8792C20.4891 26.5132 21.8279 27.8426 23.4734 27.8426C25.119 27.8426 26.4577 26.5132 26.4577 24.8792C26.4577 24.5329 26.397 24.2006 26.2866 23.8914H28.4473C28.9967 23.8914 29.4421 23.4491 29.4421 22.9036C29.4421 22.3581 28.9967 21.9158 28.4473 21.9158H8.63927C8.51592 21.9158 8.40998 21.8243 8.393 21.703L8.14531 19.9402H27.7361C28.7842 19.9402 29.7046 19.2015 29.9248 18.1832L32.3762 6.82358C32.5187 6.16416 32.3555 5.48516 31.9287 4.96069ZM13.5259 24.8792C13.5259 25.4239 13.0796 25.867 12.5311 25.867C11.9826 25.867 11.5363 25.4239 11.5363 24.8792C11.5363 24.3346 11.9826 23.8914 12.5311 23.8914C13.0796 23.8914 13.5259 24.3345 13.5259 24.8792ZM24.4683 24.8792C24.4683 25.4239 24.022 25.867 23.4735 25.867C22.925 25.867 22.4787 25.4239 22.4787 24.8792C22.4787 24.3346 22.925 23.8914 23.4735 23.8914C24.022 23.8914 24.4683 24.3345 24.4683 24.8792ZM30.4309 6.40944L27.9796 17.7688C27.9551 17.8822 27.8526 17.9645 27.7361 17.9645H7.86764L6.20204 6.11075H30.1875C30.2859 6.11075 30.3472 6.16064 30.3813 6.20249C30.4153 6.24429 30.4515 6.31412 30.4309 6.40944Z" fill="#434343"/>
</svg>
