<svg width="26" height="26" viewBox="0 0 26 26" fill="none" xmlns="http://www.w3.org/2000/svg">
<path d="M20.8993 24.1173C20.7771 24.1173 20.6562 24.0746 20.5591 23.9924L15.2893 19.5249H3.61427C1.62134 19.5249 0 17.8945 0 15.8905V5.51719C0 3.51317 1.62134 1.88281 3.61427 1.88281H22.3857C24.3787 1.88281 26 3.51322 26 5.51719V15.8905C26 17.8945 24.3787 19.5249 22.3857 19.5249H21.4269V23.5867C21.4269 23.7931 21.3078 23.9808 21.1217 24.0678C21.0506 24.101 20.9747 24.1173 20.8993 24.1173ZM3.61427 2.94404C2.20326 2.94404 1.05533 4.09833 1.05533 5.51719V15.8905C1.05533 17.3093 2.20326 18.4636 3.61427 18.4636H15.482C15.6065 18.4636 15.727 18.5079 15.8222 18.5886L20.3715 22.4453V18.9943C20.3715 18.7012 20.6078 18.4636 20.8992 18.4636H22.3857C23.7967 18.4636 24.9447 17.3093 24.9447 15.8905V5.51719C24.9447 4.09833 23.7967 2.94404 22.3857 2.94404H3.61427Z" fill="black"/>
<path d="M21.4987 7.8249H4.50127C4.20986 7.8249 3.97363 7.58729 3.97363 7.29428C3.97363 7.00123 4.20986 6.76367 4.50127 6.76367H21.4986C21.7901 6.76367 22.0263 7.00123 22.0263 7.29428C22.0263 7.58729 21.7901 7.8249 21.4987 7.8249Z" fill="black"/>
<path d="M21.4987 11.2226H4.50127C4.20986 11.2226 3.97363 10.985 3.97363 10.692C3.97363 10.3989 4.20986 10.1614 4.50127 10.1614H21.4986C21.7901 10.1614 22.0263 10.3989 22.0263 10.692C22.0263 10.985 21.7901 11.2226 21.4987 11.2226Z" fill="black"/>
<path d="M21.4987 14.6204H4.50127C4.20986 14.6204 3.97363 14.3828 3.97363 14.0898C3.97363 13.7968 4.20986 13.5592 4.50127 13.5592H21.4986C21.7901 13.5592 22.0263 13.7967 22.0263 14.0898C22.0263 14.3828 21.7901 14.6204 21.4987 14.6204Z" fill="black"/>
</svg>
