<svg width="84" height="84" viewBox="0 0 84 84" fill="none" xmlns="http://www.w3.org/2000/svg">
<g clip-path="url(#clip0)">
<path d="M57.988 42.0006H84.3971C84.3971 18.8033 65.5931 0 42.3965 0C53.9944 0 57.9888 21.001 57.988 42.0006Z" fill="#3DAAE0"/>
<path d="M0 42.0006H59.396C59.3968 21.001 53.5973 0 41.9994 0C18.804 0 0 18.8033 0 42.0006Z" fill="#44C1EF"/>
<path d="M57.104 42.0006C57.104 63.0002 53.9951 84 42.3965 84C65.5933 84 84.3971 65.196 84.3971 42.0006H57.104Z" fill="#E8BD1F"/>
<path d="M59.396 42.0006H0C0 65.196 18.804 84 41.9994 84C53.5973 84 59.396 63.0004 59.396 42.0006Z" fill="#FDCE0C"/>
</g>
<defs>
<clipPath id="clip0">
<rect width="84" height="84" fill="white"/>
</clipPath>
</defs>
</svg>
