<svg width="87" height="87" viewBox="0 0 87 87" fill="none" xmlns="http://www.w3.org/2000/svg">
<path d="M50.2969 29.9062V36.7031L43.5 46.2188L36.7031 36.7031V29.9062H50.2969Z" fill="#FEC9A3"/>
<path d="M50.2969 29.9062V33.8467C49.4109 34.751 48.3534 35.4694 47.1863 35.9598C46.0192 36.4502 44.766 36.7028 43.5 36.7028C42.234 36.7028 40.9808 36.4502 39.8137 35.9598C38.6466 35.4694 37.5891 34.751 36.7031 33.8467V29.9062H50.2969Z" fill="#FEB784"/>
<path d="M33.9844 17.6719H35.3438V25.8281H33.9844C32.9028 25.8281 31.8655 25.3985 31.1007 24.6337C30.3359 23.8689 29.9062 22.8316 29.9062 21.75C29.9062 20.6684 30.3359 19.6311 31.1007 18.8663C31.8655 18.1015 32.9028 17.6719 33.9844 17.6719Z" fill="#F7AD7C"/>
<path d="M53.0156 25.8281H51.6562V17.6719H53.0156C54.0972 17.6719 55.1345 18.1015 55.8993 18.8663C56.6641 19.6311 57.0938 20.6684 57.0938 21.75C57.0938 22.8316 56.6641 23.8689 55.8993 24.6337C55.1345 25.3985 54.0972 25.8281 53.0156 25.8281Z" fill="#F7AD7C"/>
<path d="M53.0156 14.9531V24.4688C53.0156 26.9925 52.0131 29.4128 50.2286 31.1973C48.444 32.9818 46.0237 33.9844 43.5 33.9844C43.0778 33.9842 42.6561 33.9564 42.2375 33.9011C39.9527 33.5953 37.8566 32.4704 36.3387 30.7356C34.8207 29.0008 33.9842 26.7739 33.9844 24.4688V14.9531H53.0156Z" fill="#FEC9A3"/>
<path d="M53.0164 14.9531V24.4688C53.0164 26.9925 52.0139 29.4128 50.2294 31.1973C48.4448 32.9818 46.0245 33.9844 43.5008 33.9844C43.0786 33.9842 42.6569 33.9564 42.2383 33.9011C43.7411 32.5869 44.9451 30.9661 45.7693 29.1477C46.5935 27.3294 47.0188 25.3556 47.0165 23.3592V17.1298C47.0166 16.401 46.9603 15.6733 46.8483 14.9531H53.0164Z" fill="#FEC093"/>
<path d="M54.375 9.51563V14.9531H32.625V9.51563C32.625 8.07351 33.1979 6.69046 34.2176 5.67073C35.2373 4.651 36.6204 4.07813 38.0625 4.07813H48.9375C49.6517 4.07781 50.3589 4.21824 51.0187 4.49139C51.6786 4.76454 52.2781 5.16505 52.7831 5.67004C53.2881 6.17502 53.6886 6.77457 53.9617 7.43441C54.2349 8.09426 54.3753 8.80148 54.375 9.51563Z" fill="#F35244"/>
<path d="M54.3745 14.9531H32.6245C32.3585 15.4851 32.2409 16.079 32.2841 16.6722C32.3273 17.2654 32.5296 17.8359 32.8698 18.3238C33.21 18.8117 33.6754 19.1988 34.2171 19.4444C34.7588 19.69 35.3567 19.7849 35.9478 19.7193L39.1291 19.3658C41.1303 19.1434 45.8687 19.1434 47.8699 19.3658L51.0512 19.7193C51.6423 19.7849 52.2402 19.69 52.7819 19.4444C53.3236 19.1988 53.789 18.8117 54.1292 18.3238C54.4694 17.8359 54.6717 17.2654 54.7149 16.6722C54.7581 16.079 54.6405 15.4851 54.3745 14.9531Z" fill="#92563A"/>
<path d="M54.3754 9.51559V14.9531H36.0918C41.8909 12.4438 47.3243 9.1624 52.2446 5.19788C52.9077 5.70543 53.4448 6.35899 53.8144 7.10781C54.1839 7.85663 54.3759 8.68055 54.3754 9.51559Z" fill="#E84D40"/>
<path d="M38.0625 9.51562H48.9375V14.9531H38.0625V9.51562Z" fill="#FC685B"/>
<path d="M74.7656 53.0156L63.8906 55.7344L61.1719 46.2188V82.9219H25.8281V46.2188L23.1094 55.7344L12.2344 53.0156L13.8096 47.2434C14.5283 44.6066 16.0942 42.2793 18.2661 40.6202C20.4379 38.9612 23.0951 38.0624 25.8281 38.0625H33.9844L36.7031 36.7031L43.5 46.2188L50.2969 36.7031L53.0156 38.0625H61.1719C63.9051 38.0617 66.5626 38.9602 68.7346 40.6194C70.9066 42.2785 72.4724 44.6062 73.1905 47.2434L74.7656 53.0156Z" fill="#F35244"/>
<path d="M74.7656 53.0156L63.8906 55.7344L61.1719 46.2187V82.9219H25.8281V67.1905C41.3777 62.691 55.7531 53.9655 65.6391 38.89C67.4654 39.5915 69.1008 40.7133 70.4127 42.1646C71.7246 43.6159 72.6763 45.3558 73.1905 47.2434L74.7656 53.0156Z" fill="#E84D40"/>
<path d="M36.7031 36.7031L33.9844 38.0625V47.5781L43.5 46.2188L36.7031 36.7031Z" fill="#92563A"/>
<path d="M50.2969 36.7031L53.0156 38.0625V47.5781L43.5 46.2188L50.2969 36.7031Z" fill="#92563A"/>
<path d="M23.1094 55.7344L19.8027 65.6561L17.6719 72.0469V82.9219H16.3363C15.0835 82.9221 13.8429 82.6755 12.6855 82.1962C11.528 81.7169 10.4763 81.0142 9.59041 80.1283C8.70455 79.2425 8.00189 78.1908 7.52257 77.0333C7.04325 75.8758 6.79665 74.6353 6.79688 73.3825C6.79616 72.4962 6.91971 71.6142 7.16391 70.7623L12.2344 53.0156L23.1094 55.7344Z" fill="#FEB784"/>
<path d="M80.2031 73.3825C80.2033 74.6352 79.9566 75.8758 79.4773 77.0332C78.9979 78.1906 78.2952 79.2423 77.4094 80.1281C76.5236 81.014 75.4719 81.7167 74.3144 82.196C73.157 82.6754 71.9165 82.922 70.6637 82.9219H69.3281V72.0469L67.1973 65.6561L63.8906 55.7344L74.7656 53.0156L79.8361 70.7623C80.0803 71.6142 80.2038 72.4962 80.2031 73.3825Z" fill="#FEB784"/>
<path d="M23.1094 43.5H63.8906V82.9219H23.1094V43.5Z" fill="#FA9F0C"/>
<path d="M63.8906 82.9219H23.1094V75.6152L56.2441 58.4531H63.8906V82.9219Z" fill="#F5980C"/>
<path d="M23.1094 43.5H63.8906V58.4531H23.1094V43.5Z" fill="#FFB531"/>
<path d="M39.4219 43.5H47.5781V58.4531H39.4219V43.5Z" fill="#F98500"/>
<path d="M39.4219 58.4531H47.5781V66.6094H39.4219V58.4531Z" fill="#F57707"/>
<path d="M32.625 74.2338V80.735C32.6251 81.0222 32.5685 81.3066 32.4587 81.5719C32.3488 81.8373 32.1877 82.0784 31.9846 82.2815C31.7815 82.4846 31.5404 82.6457 31.2751 82.7555C31.0097 82.8654 30.7253 82.9219 30.4381 82.9219H16.3363C15.0835 82.9221 13.8429 82.6755 12.6854 82.1962C11.528 81.7169 10.4763 81.0142 9.59041 80.1283C8.70455 79.2425 8.00189 78.1908 7.52257 77.0333C7.04324 75.8758 6.79665 74.6352 6.79688 73.3825C6.79738 72.9356 6.8286 72.4894 6.89033 72.0469H17.6719L18.603 67.3927C18.7419 66.6994 19.1504 66.0896 19.7388 65.6974C20.0302 65.5033 20.3569 65.3684 20.7004 65.3005C21.0439 65.2326 21.3973 65.2331 21.7407 65.3018C22.084 65.3705 22.4104 65.5062 22.7012 65.7011C22.9921 65.896 23.2418 66.1462 23.4359 66.4376C23.6301 66.7289 23.7649 67.0557 23.8328 67.3992C23.9007 67.7426 23.9003 68.0961 23.8315 68.4394L23.1094 72.0469H30.4381C30.7253 72.0468 31.0097 72.1033 31.2751 72.2132C31.5404 72.3231 31.7815 72.4842 31.9846 72.6872C32.1877 72.8903 32.3488 73.1314 32.4587 73.3968C32.5685 73.6622 32.6251 73.9466 32.625 74.2338Z" fill="#FEC9A3"/>
<path d="M80.2031 73.3825C80.2033 74.6352 79.9566 75.8758 79.4773 77.0332C78.9979 78.1906 78.2952 79.2423 77.4094 80.1281C76.5236 81.014 75.4719 81.7167 74.3144 82.196C73.157 82.6754 71.9165 82.922 70.6637 82.9219H56.5619C56.2747 82.9219 55.9903 82.8654 55.7249 82.7555C55.4596 82.6457 55.2185 82.4846 55.0154 82.2815C54.8123 82.0784 54.6512 81.8373 54.5413 81.5719C54.4315 81.3066 54.3749 81.0222 54.375 80.735V74.2338C54.3749 73.9466 54.4315 73.6622 54.5413 73.3968C54.6512 73.1314 54.8123 72.8903 55.0154 72.6873C55.2185 72.4842 55.4596 72.3231 55.7249 72.2132C55.9903 72.1033 56.2747 72.0468 56.5619 72.0469H63.8906L63.1685 68.4394C63.0903 68.0525 63.0992 67.653 63.1945 67.2699C63.2898 66.8868 63.4691 66.5296 63.7194 66.2244C63.9697 65.9191 64.2848 65.6733 64.6418 65.5048C64.9988 65.3362 65.3888 65.2492 65.7836 65.25C66.3997 65.2501 66.9967 65.4637 67.4732 65.8543C67.9496 66.245 68.2761 66.7886 68.397 67.3927L69.3281 72.0469H80.1097C80.1714 72.4894 80.2026 72.9357 80.2031 73.3825Z" fill="#FEC9A3"/>
</svg>
