<svg width="27" height="27" viewBox="0 0 27 27" fill="none" xmlns="http://www.w3.org/2000/svg">
<path d="M24.7197 22.021H2.2798C1.86878 22.0206 1.47474 21.8571 1.1841 21.5664C0.893466 21.2758 0.729975 20.8818 0.729492 20.4707V6.11367C0.729975 5.70268 0.893478 5.30867 1.18412 5.01809C1.47477 4.72752 1.86882 4.56411 2.2798 4.56372H24.719C25.1301 4.56391 25.5243 4.72724 25.8151 5.01784C26.1059 5.30843 26.2695 5.70255 26.27 6.11367V20.4707C26.2695 20.8818 26.1061 21.2758 25.8154 21.5664C25.5248 21.8571 25.1307 22.0206 24.7197 22.021ZM2.2798 5.29345C2.06229 5.29364 1.85374 5.38011 1.69991 5.53388C1.54607 5.68765 1.45951 5.89616 1.45922 6.11367V20.4707C1.45951 20.6883 1.54606 20.8968 1.69988 21.0507C1.85371 21.2045 2.06226 21.291 2.2798 21.2913H24.719C24.9367 21.2912 25.1454 21.2048 25.2994 21.0509C25.4534 20.8971 25.54 20.6884 25.5403 20.4707V6.11367C25.54 5.89616 25.4535 5.68765 25.2996 5.53388C25.1458 5.38011 24.9372 5.29364 24.7197 5.29345H2.2798Z" fill="black"/>
<path d="M13.4996 14.278C13.1353 14.2787 12.7807 14.1609 12.4893 13.9423L1.28755 5.50954C1.21013 5.45148 1.15896 5.36504 1.14527 5.26925C1.13159 5.17345 1.15652 5.07614 1.21458 4.99873C1.27264 4.92132 1.35907 4.87014 1.45487 4.85645C1.55066 4.84277 1.64797 4.8677 1.72539 4.92576L12.9267 13.3589C13.0917 13.4822 13.2922 13.5488 13.4981 13.5488C13.7041 13.5488 13.9045 13.4822 14.0695 13.3589L25.2727 4.92576C25.311 4.89701 25.3546 4.87609 25.401 4.8642C25.4475 4.85231 25.4958 4.84968 25.5432 4.85645C25.5906 4.86323 25.6363 4.87928 25.6775 4.90369C25.7187 4.9281 25.7547 4.9604 25.7835 4.99873C25.8122 5.03706 25.8331 5.08068 25.845 5.1271C25.8569 5.17351 25.8596 5.22182 25.8528 5.26925C25.846 5.31668 25.83 5.36232 25.8055 5.40355C25.7811 5.44478 25.7488 5.48079 25.7105 5.50954L14.5092 13.9427C14.2179 14.1609 13.8636 14.2786 13.4996 14.278Z" fill="black"/>
<path d="M1.34458 21.561C1.26983 21.561 1.19687 21.5381 1.13557 21.4953C1.07427 21.4525 1.02758 21.392 1.00183 21.3218C0.976077 21.2516 0.972499 21.1752 0.991578 21.103C1.01066 21.0307 1.05148 20.966 1.10851 20.9177L11.1715 12.3919C11.2453 12.3294 11.341 12.2987 11.4374 12.3067C11.5339 12.3146 11.6232 12.3606 11.6858 12.4344C11.7483 12.5083 11.779 12.6039 11.771 12.7004C11.763 12.7968 11.7171 12.8861 11.6433 12.9487L1.58028 21.4745C1.51453 21.5305 1.43094 21.5612 1.34458 21.561Z" fill="black"/>
<path d="M25.6557 21.561C25.5693 21.5612 25.4858 21.5305 25.42 21.4745L15.357 12.9487C15.3205 12.9177 15.2904 12.8798 15.2685 12.8372C15.2465 12.7946 15.2332 12.7481 15.2293 12.7004C15.2253 12.6526 15.2308 12.6045 15.2454 12.5589C15.2601 12.5133 15.2835 12.471 15.3145 12.4344C15.3455 12.3979 15.3834 12.3678 15.426 12.3458C15.4686 12.3239 15.5151 12.3106 15.5629 12.3067C15.6106 12.3027 15.6587 12.3082 15.7043 12.3228C15.7499 12.3375 15.7922 12.3609 15.8288 12.3919L25.8918 20.9177C25.9488 20.966 25.9896 21.0307 26.0087 21.103C26.0278 21.1752 26.0242 21.2516 25.9985 21.3218C25.9727 21.392 25.926 21.4525 25.8647 21.4953C25.8034 21.5381 25.7305 21.561 25.6557 21.561Z" fill="black"/>
</svg>
