<svg width="30" height="30" viewBox="0 0 30 30" fill="none" xmlns="http://www.w3.org/2000/svg">
<path d="M21.75 1.25C19.0625 1.25415 16.5449 2.56494 15 4.76392C13.4551 2.56494 10.9375 1.25415 8.25 1.25C3.85498 1.25 0 5.33911 0 10C0 14.5425 2.56494 19.2209 7.41797 23.53C9.6665 25.5227 12.1331 27.2549 14.7705 28.6941C14.9146 28.7683 15.0854 28.7683 15.2295 28.6941C17.866 27.2549 20.3318 25.5225 22.5796 23.53C27.4351 19.2209 30 14.5425 30 10C30 5.33911 26.145 1.25 21.75 1.25V1.25ZM15 27.6814C13.1636 26.668 1 19.5879 1 10C1 5.87158 4.38745 2.25 8.25 2.25C10.8667 2.25464 13.2788 3.66626 14.5645 5.94556C14.6606 6.09253 14.8245 6.18091 15 6.18091C15.1755 6.18091 15.3394 6.09253 15.4355 5.94556C16.7212 3.66626 19.1333 2.25464 21.75 2.25C25.6125 2.25 29 5.87158 29 10C29 19.5879 16.8364 26.668 15 27.6814Z" fill="#434343"/>
<path d="M21.3 2.16663C18.7917 2.1705 16.4419 3.3939 15 5.44628C13.5581 3.3939 11.2083 2.1705 8.7 2.16663C4.59798 2.16663 1 5.98313 1 10.3333C1 14.5729 3.39395 18.9395 7.92344 22.9613C10.0221 24.8212 12.3242 26.4379 14.7858 27.7811C14.9202 27.8504 15.0798 27.8504 15.2142 27.7811C17.6749 26.4379 19.9763 24.8209 22.0743 22.9613C26.6061 18.9395 29 14.5729 29 10.3333C29 5.98313 25.402 2.16663 21.3 2.16663V2.16663ZM15 26.8359C13.286 25.8901 1.93333 19.282 1.93333 10.3333C1.93333 6.4801 5.09495 3.09996 8.7 3.09996C11.1423 3.10429 13.3936 4.4218 14.5935 6.54915C14.6833 6.68632 14.8362 6.76881 15 6.76881C15.1638 6.76881 15.3167 6.68632 15.4065 6.54915C16.6064 4.4218 18.8577 3.10429 21.3 3.09996C24.905 3.09996 28.0667 6.4801 28.0667 10.3333C28.0667 19.282 16.714 25.8901 15 26.8359Z" fill="#434343"/>
<path d="M21.3 1.20825C18.7917 1.21226 16.4419 2.47936 15 4.60504C13.5581 2.47936 11.2083 1.21226 8.7 1.20825C4.59798 1.20825 1 5.16106 1 9.66659C1 14.0577 3.39395 18.5802 7.92344 22.7456C10.0221 24.6719 12.3242 26.3463 14.7858 27.7375C14.9202 27.8093 15.0798 27.8093 15.2142 27.7375C17.6749 26.3463 19.9763 24.6716 22.0743 22.7456C26.6061 18.5802 29 14.0577 29 9.66659C29 5.16106 25.402 1.20825 21.3 1.20825V1.20825ZM15 26.7586C13.286 25.779 1.93333 18.9349 1.93333 9.66659C1.93333 5.67578 5.09495 2.17492 8.7 2.17492C11.1423 2.1794 13.3936 3.54397 14.5935 5.74729C14.6833 5.88936 14.8362 5.9748 15 5.9748C15.1638 5.9748 15.3167 5.88936 15.4065 5.74729C16.6064 3.54397 18.8577 2.1794 21.3 2.17492C24.905 2.17492 28.0667 5.67578 28.0667 9.66659C28.0667 18.9349 16.714 25.779 15 26.7586Z" fill="#434343"/>
</svg>
