<svg width="27" height="28" viewBox="0 0 27 28" fill="none" xmlns="http://www.w3.org/2000/svg">
<path d="M19.125 2.72217H7.875C4.7684 2.72217 2.25 5.24057 2.25 8.34717V19.5972C2.25 22.7038 4.7684 25.2222 7.875 25.2222H19.125C22.2316 25.2222 24.75 22.7038 24.75 19.5972V8.34717C24.75 5.24057 22.2316 2.72217 19.125 2.72217Z" stroke="#434343" stroke-width="2" stroke-linecap="round" stroke-linejoin="round"/>
<path d="M18 13.2633C18.1388 14.1995 17.9789 15.1558 17.543 15.9959C17.107 16.8361 16.4173 17.5174 15.5718 17.9429C14.7263 18.3684 13.7682 18.5166 12.8337 18.3662C11.8992 18.2158 11.036 17.7746 10.3667 17.1053C9.69738 16.436 9.25617 15.5728 9.1058 14.6383C8.95543 13.7038 9.10355 12.7456 9.52909 11.9002C9.95464 11.0547 10.6359 10.365 11.4761 9.92904C12.3162 9.4931 13.2724 9.33318 14.2087 9.47202C15.1638 9.61364 16.0479 10.0587 16.7306 10.7414C17.4133 11.4241 17.8584 12.3082 18 13.2633Z" stroke="#434343" stroke-width="2" stroke-linecap="round" stroke-linejoin="round"/>
<path d="M19.6875 7.78467H19.6999" stroke="#434343" stroke-width="2" stroke-linecap="round" stroke-linejoin="round"/>
</svg>
