<svg width="77" height="77" viewBox="0 0 77 77" fill="none" xmlns="http://www.w3.org/2000/svg">
<path d="M64.9688 7.82031H6.61719C6.02668 7.81606 5.44116 7.92862 4.89432 8.1515C4.34747 8.37437 3.85008 8.70318 3.43078 9.11899C3.01147 9.5348 2.67852 10.0294 2.45107 10.5744C2.22362 11.1193 2.10617 11.7039 2.10547 12.2944V47.937C2.10397 49.1375 2.57764 50.2898 3.423 51.1422C4.26836 51.9946 5.41671 52.4778 6.61719 52.4863H45.5684L69.4805 43.4629V12.2944C69.4798 11.7039 69.3623 11.1193 69.1349 10.5744C68.9074 10.0294 68.5745 9.5348 68.1552 9.11899C67.7359 8.70318 67.2385 8.37437 66.6916 8.1515C66.1448 7.92862 65.5593 7.81606 64.9688 7.82031Z" fill="#3090FC"/>
<path d="M2.10547 17.7085H69.4805V26.7319H2.10547V17.7085Z" fill="#FB6771"/>
<path d="M22.1826 35.8306C23.3593 35.8306 24.4877 36.298 25.3197 37.13C26.1517 37.962 26.6191 39.0905 26.6191 40.2671C26.6191 41.4437 26.1517 42.5722 25.3197 43.4042C24.4877 44.2362 23.3593 44.7036 22.1826 44.7036H11.6553C10.4786 44.7036 9.35019 44.2362 8.51818 43.4042C7.68617 42.5722 7.21875 41.4437 7.21875 40.2671C7.21875 39.0905 7.68617 37.962 8.51818 37.13C9.35019 36.298 10.4786 35.8306 11.6553 35.8306H22.1826Z" fill="#9BE147"/>
<path d="M44.042 52.4487C44.3847 48.4205 46.2918 44.6868 49.3547 42.048C52.4175 39.4093 56.3921 38.0754 60.4267 38.3323C64.4613 38.5892 68.2347 40.4165 70.9381 43.4224C73.6414 46.4284 75.0596 50.3738 74.8886 54.4129C74.7176 58.4521 72.9711 62.2635 70.0233 65.0302C67.0756 67.7969 63.1612 69.2987 59.1194 69.2137C55.0775 69.1287 51.2298 67.4637 48.401 64.5755C45.5721 61.6873 43.9874 57.8058 43.9863 53.7631C43.9863 53.3209 44.0044 52.8818 44.042 52.4487Z" fill="#B3D1E7"/>
<path d="M66.2608 47.8242H52.7407L51.5391 60.6074H67.3421L66.2608 47.8242Z" fill="#E1B7A3"/>
<path d="M67.3421 60.6781L66.354 63.6438H52.6474L51.5391 60.6781H67.3421Z" fill="#C79A83"/>
<path d="M55.9766 54.7512H63.0239V57.356H55.9766V54.7512Z" fill="#E75163"/>
<path d="M6.61719 47.937V12.2944C6.61789 11.7039 6.73534 11.1193 6.96279 10.5744C7.19023 10.0294 7.52319 9.5348 7.94249 9.11899C8.3618 8.70318 8.85918 8.37437 9.40603 8.1515C9.95288 7.92862 10.5384 7.81606 11.1289 7.82031H6.61719C6.02668 7.81606 5.44116 7.92862 4.89431 8.1515C4.34747 8.37437 3.85008 8.70318 3.43078 9.11899C3.01147 9.5348 2.67852 10.0294 2.45107 10.5744C2.22362 11.1193 2.10617 11.7039 2.10547 12.2944V47.937C2.10397 49.1375 2.57764 50.2898 3.423 51.1422C4.26836 51.9946 5.41671 52.4778 6.61719 52.4863H11.1289C9.92843 52.4778 8.78008 51.9946 7.93472 51.1422C7.08936 50.2898 6.61569 49.1375 6.61719 47.937Z" fill="#64B5FF"/>
<path d="M2.10547 17.7085H6.61719V26.7319H2.10547V17.7085Z" fill="#FFA6AF"/>
<path d="M48.498 53.7631C48.498 53.321 48.5161 52.8818 48.5537 52.4487C48.8504 48.9807 50.3087 45.7144 52.6925 43.1782C55.0763 40.6421 58.2462 38.9845 61.6891 38.4738C59.6029 38.1666 57.4758 38.2897 55.4389 38.8355C53.402 39.3812 51.4984 40.3382 49.8453 41.6473C48.1921 42.9565 46.8244 44.5901 45.8264 46.4477C44.8283 48.3053 44.2211 50.3476 44.042 52.4487C44.0044 52.8818 43.9863 53.321 43.9863 53.7631C43.9874 55.983 44.4664 58.1766 45.3909 60.1948C46.3154 62.213 47.6636 64.0084 49.3439 65.4591C51.0241 66.9097 52.9971 67.9816 55.1286 68.6017C57.2601 69.2218 59.5001 69.3757 61.6963 69.0529C58.0283 68.5109 54.6774 66.6685 52.2545 63.8618C49.8317 61.055 48.4985 57.4709 48.498 53.7631Z" fill="#D2EAF9"/>
<path d="M62.4801 52.0997C62.2408 52.0997 62.0113 52.0047 61.8421 51.8354C61.6728 51.6662 61.5778 51.4367 61.5778 51.1974V46.1525C61.5778 45.6019 61.359 45.0739 60.9697 44.6846C60.5804 44.2953 60.0524 44.0765 59.5018 44.0765C58.9512 44.0765 58.4231 44.2953 58.0338 44.6846C57.6445 45.0739 57.4258 45.6019 57.4258 46.1525V51.1974C57.4258 51.4367 57.3307 51.6662 57.1615 51.8354C56.9923 52.0047 56.7628 52.0997 56.5234 52.0997C56.2841 52.0997 56.0546 52.0047 55.8854 51.8354C55.7162 51.6662 55.6211 51.4367 55.6211 51.1974V46.1525C55.6211 45.1233 56.0299 44.1362 56.7577 43.4085C57.4855 42.6807 58.4725 42.2719 59.5018 42.2719C60.531 42.2719 61.5181 42.6807 62.2458 43.4085C62.9736 44.1362 63.3824 45.1233 63.3824 46.1525V51.1974C63.3824 51.4367 63.2874 51.6662 63.1182 51.8354C62.9489 52.0047 62.7194 52.0997 62.4801 52.0997Z" fill="#E75163"/>
<path d="M7.81324 22.6008H7.80466L6.8572 22.5919C6.61789 22.5908 6.38881 22.4947 6.22036 22.3247C6.05191 22.1547 5.9579 21.9248 5.95899 21.6855C5.96009 21.4461 6.05621 21.2171 6.22621 21.0486C6.39621 20.8802 6.62616 20.7861 6.86547 20.7872H6.8742L7.82091 20.7961C8.06022 20.7972 8.28929 20.8934 8.45773 21.0634C8.62616 21.2334 8.72016 21.4634 8.71904 21.7027C8.71792 21.942 8.62178 22.1711 8.45177 22.3395C8.28176 22.5079 8.0518 22.6019 7.81248 22.6008H7.81324Z" fill="#F4F8FC"/>
<path d="M34.1315 22.7488H34.1267L10.6657 22.6276C10.4264 22.627 10.1971 22.5313 10.0283 22.3617C9.85952 22.192 9.76503 21.9623 9.76563 21.723C9.76623 21.4836 9.86187 21.2544 10.0315 21.0856C10.2012 20.9168 10.4309 20.8223 10.6702 20.8229H10.675L34.136 20.9441C34.2545 20.9444 34.3718 20.968 34.4811 21.0137C34.5905 21.0593 34.6898 21.126 34.7734 21.21C34.8569 21.294 34.9231 21.3937 34.9682 21.5033C35.0133 21.6129 35.0363 21.7303 35.036 21.8488C35.0357 21.9673 35.012 22.0845 34.9664 22.1939C34.9208 22.3033 34.8541 22.4026 34.7701 22.4861C34.686 22.5697 34.5864 22.6359 34.4768 22.681C34.3672 22.726 34.2498 22.7491 34.1313 22.7488H34.1315Z" fill="#F4F8FC"/>
</svg>
