<svg width="76" height="76" viewBox="0 0 76 76" fill="none" xmlns="http://www.w3.org/2000/svg">
<g clip-path="url(#clip0)">
<path d="M65.9526 27.701L30.5212 63.133C28.9197 64.7339 26.3238 64.7339 24.7228 63.133L3.87257 42.2827C2.27164 40.6812 2.27164 38.0853 3.87257 36.4843L39.304 1.05238C40.9055 -0.548546 43.5014 -0.548546 45.1023 1.05238L65.9526 21.9027C67.5541 23.5036 67.5541 26.1001 65.9526 27.701Z" fill="#8CBAFA"/>
<path d="M65.9531 21.9027L63.3514 19.3004C64.7772 20.7262 64.6346 23.1801 63.0337 24.781L27.6017 60.213C26.0008 61.8145 23.5469 61.9565 22.1211 60.5307L24.7234 63.133C26.3243 64.734 28.9202 64.734 30.5217 63.133L65.9531 27.7011C67.5546 26.1001 67.5546 23.5036 65.9531 21.9027Z" fill="#5692D8"/>
<path d="M10.6858 40.8245C10.4006 40.8245 10.1159 40.7154 9.89842 40.498C9.46355 40.0631 9.46355 39.3586 9.89842 38.9238L27.2535 21.5687C27.6883 21.1338 28.3934 21.1338 28.8277 21.5687C29.2626 22.0036 29.2626 22.7087 28.8277 23.143L11.4727 40.4986C11.2552 40.7154 10.9705 40.8245 10.6858 40.8245Z" fill="#252D4C"/>
<path d="M16.2015 46.3398C15.9162 46.3398 15.6315 46.2308 15.414 46.0134C14.9792 45.5785 14.9792 44.874 15.414 44.4391L32.7691 27.0841C33.204 26.6492 33.909 26.6492 34.3433 27.0841C34.7782 27.519 34.7782 28.224 34.3433 28.6583L16.9883 46.0134C16.7709 46.2308 16.4862 46.3398 16.2015 46.3398Z" fill="#252D4C"/>
<path d="M38.7243 9.12831L35.2522 12.5998C33.8873 13.9647 33.8873 16.1774 35.2522 17.5423C36.6171 18.9072 38.8304 18.9072 40.1953 17.5423L43.6668 14.0708C45.0317 12.7059 45.0317 10.4932 43.6668 9.12831C42.3018 7.76338 40.0886 7.76338 38.7243 9.12831Z" fill="#FFCD34"/>
<path d="M69.298 38.1647H19.1899C16.9256 38.1647 15.0898 40.0004 15.0898 42.2647V71.7516C15.0898 74.0159 16.9256 75.8516 19.1899 75.8516H69.298C71.5629 75.8516 73.398 74.0159 73.398 71.7516V42.2647C73.3986 40.0004 71.5629 38.1647 69.298 38.1647Z" fill="#FFCD34"/>
<path d="M69.2987 38.1647H65.6289C67.8932 38.1647 69.7289 40.0004 69.7289 42.2647V71.7516C69.7289 74.0159 67.8932 75.8516 65.6289 75.8516H69.2987C71.5635 75.8516 73.3987 74.0159 73.3987 71.7516V42.2647C73.3993 40.0004 71.5635 38.1647 69.2987 38.1647Z" fill="#E69012"/>
<path d="M15.0898 47.4282H73.3986V54.5121H15.0898V47.4282Z" fill="#575B7A"/>
<path d="M69.7285 47.4282H73.3983V54.5121H69.7285V47.4282Z" fill="#252D4C"/>
<path d="M59.0684 65.831V70.2C59.0684 70.538 59.342 70.8117 59.6801 70.8117H66.6294C66.9674 70.8117 67.2411 70.538 67.2411 70.2V65.831C67.2411 65.4929 66.9674 65.2192 66.6294 65.2192H59.6801C59.342 65.2192 59.0684 65.4929 59.0684 65.831Z" fill="#E9E9EA"/>
<path d="M38.1152 65.831V70.2C38.1152 70.538 38.3895 70.8117 38.727 70.8117H53.4258C53.7638 70.8117 54.0375 70.538 54.0375 70.2V65.831C54.0375 65.4929 53.7638 65.2192 53.4258 65.2192H38.727C38.3895 65.2192 38.1152 65.4929 38.1152 65.831Z" fill="#E9E9EA"/>
<path d="M32.1235 71.925H24.8008C24.1856 71.925 23.6875 71.4264 23.6875 70.8118C23.6875 70.1966 24.1856 69.6985 24.8008 69.6985H32.1235C32.7387 69.6985 33.2368 70.1966 33.2368 70.8118C33.2368 71.4264 32.7387 71.925 32.1235 71.925Z" fill="#252D4C"/>
</g>
<defs>
<clipPath id="clip0">
<rect width="76" height="76" fill="white"/>
</clipPath>
</defs>
</svg>
