<svg width="25" height="25" viewBox="0 0 25 25" fill="none" xmlns="http://www.w3.org/2000/svg">
<g clip-path="url(#clip0)">
<path d="M15.3279 10.1778L11.5716 13.7256L9.76888 11.871C9.56903 11.6652 9.23995 11.6606 9.0344 11.8604C8.82865 12.0605 8.82397 12.3893 9.02382 12.5951L11.186 14.8146C11.3868 15.0167 11.7114 15.0236 11.9206 14.8301L16.0522 10.9332C16.1525 10.8386 16.2111 10.7079 16.215 10.5701C16.2189 10.4324 16.1678 10.2986 16.0729 10.1985C15.8719 9.98951 15.5403 9.98035 15.3279 10.1778Z" fill="black"/>
<path d="M12.5399 4.71765C8.24702 4.71765 4.75635 8.20833 4.75635 12.5013C4.75635 16.7944 8.24702 20.2851 12.5399 20.2851C16.8331 20.2851 20.3238 16.7944 20.3238 12.5013C20.3238 8.20833 16.8331 4.71765 12.5399 4.71765ZM12.5399 19.2431C8.82012 19.2431 5.79834 16.216 5.79834 12.5013C5.79834 8.78651 8.82012 5.75964 12.5399 5.75964C16.2634 5.75964 19.2818 8.77796 19.2818 12.5013C19.2818 16.2245 16.2634 19.2431 12.5399 19.2431Z" fill="black"/>
<path d="M23.2517 9.63584L23.4237 6.54629C23.4357 6.33891 23.323 6.14415 23.1372 6.05134L20.3863 4.66032L18.9952 1.90942C18.9006 1.72524 18.7071 1.6131 18.5003 1.62287L15.4055 1.78975L12.8265 0.0859339C12.6527 -0.0286446 12.4274 -0.0286446 12.2534 0.0859339L9.67449 1.78975L6.58515 1.61779C6.37756 1.60557 6.183 1.71832 6.0902 1.90433L4.69898 4.65524L1.94828 6.04626C1.76389 6.14069 1.65196 6.33423 1.66173 6.5412L1.8335 9.63075L0.129879 12.2097C0.0153007 12.3835 0.0153007 12.6088 0.129879 12.7828L1.82841 15.3668L1.65644 18.4563C1.64443 18.6637 1.75698 18.8585 1.94299 18.9513L4.69389 20.3423L6.08491 23.0932C6.17934 23.2776 6.37288 23.3895 6.57986 23.3798L9.6694 23.2078L12.2483 24.9114C12.4211 25.0297 12.6486 25.0297 12.8214 24.9114L15.4004 23.2078L18.4899 23.3798C18.6973 23.3918 18.8919 23.279 18.9849 23.0932L20.3759 20.3423L23.1268 18.9513C23.311 18.8567 23.4231 18.6633 23.4133 18.4563L23.2414 15.3668L24.945 12.7879C25.0596 12.6141 25.0596 12.3886 24.945 12.2148L23.2517 9.63584ZM22.2826 14.9396C22.2191 15.0328 22.1896 15.145 22.1994 15.2575L22.3608 18.1802L19.7611 19.493C19.662 19.5427 19.5816 19.6233 19.5319 19.7224L18.2188 22.3221L15.2962 22.1607C15.1842 22.1566 15.0737 22.1855 14.9783 22.244L12.54 23.854L10.1019 22.244C10.0172 22.1868 9.91749 22.1558 9.81532 22.1554H9.78928L6.8664 22.317L5.55353 19.7171C5.50388 19.618 5.42349 19.5376 5.32417 19.488L2.71919 18.1802L2.88078 15.2575C2.88485 15.1456 2.85575 15.0351 2.79734 14.9396L1.18754 12.5013L2.79734 10.063C2.86104 9.97001 2.89055 9.85767 2.88078 9.74533L2.71919 6.82246L5.31909 5.50959C5.4182 5.45993 5.49858 5.37954 5.54824 5.28043L6.86111 2.68054L9.78398 2.84213C9.89571 2.84599 10.0062 2.81709 10.1019 2.75869L12.54 1.14889L14.9783 2.75869C15.0715 2.82239 15.1838 2.8519 15.2962 2.84213L18.2188 2.68054L19.5319 5.28043C19.5816 5.37954 19.662 5.45993 19.7611 5.50959L22.3608 6.82246L22.1994 9.74533C22.1953 9.85706 22.2244 9.96757 22.2826 10.063L23.8926 12.5013L22.2826 14.9396Z" fill="black"/>
</g>
<defs>
<clipPath id="clip0">
<rect width="25" height="25" fill="white"/>
</clipPath>
</defs>
</svg>
