<svg width="24" height="23" viewBox="0 0 24 23" fill="none" xmlns="http://www.w3.org/2000/svg">
<path d="M23.3525 21.3639L16.812 14.8234C18.0789 13.2584 18.8417 11.2699 18.8417 9.10409C18.8417 4.08439 14.7573 0 9.73759 0C4.71789 0 0.633545 4.08435 0.633545 9.10404C0.633545 14.1237 4.71794 18.2081 9.73764 18.2081C11.9034 18.2081 13.892 17.4453 15.4569 16.1784L21.9975 22.719C22.1843 22.9058 22.4296 22.9998 22.675 22.9998C22.9204 22.9998 23.1657 22.9058 23.3526 22.719C23.7273 22.3443 23.7273 21.7386 23.3525 21.3639ZM9.73764 16.2915C5.77399 16.2915 2.55021 13.0677 2.55021 9.10404C2.55021 5.1404 5.77399 1.91662 9.73764 1.91662C13.7013 1.91662 16.9251 5.1404 16.9251 9.10404C16.9251 13.0677 13.7012 16.2915 9.73764 16.2915Z" fill="#434343"/>
</svg>
