<svg width="33" height="19" viewBox="0 0 33 19" fill="none" xmlns="http://www.w3.org/2000/svg">
<path d="M32.9746 6.25C32.5617 4.25 28.7632 3.66667 23.9737 3.91667C22.3222 1.5 19.5146 0 16.4593 0C12.413 0 9.02737 2.58333 7.70614 6.33333C7.62356 6.66667 7.45841 7 7.45841 7.33333C7.29325 7.83333 7.21068 8.41667 7.21068 9C7.21068 9.25 7.21068 9.41667 7.21068 9.66667C7.21068 10.0833 7.21068 10.4167 7.29326 10.8333C7.45841 11.9167 7.70614 12.9167 8.2016 13.9167C7.37583 13.9167 6.63264 13.9167 5.88945 13.9167C2.42123 13.75 1.5129 13 1.43032 12.75C1.34774 12.5 1.92577 11.5 4.98111 10V8.25C4.81596 8.33333 4.6508 8.41667 4.56823 8.41667C1.26516 9.91667 -0.221217 11.4167 0.0265125 12.8333C0.274242 14.25 2.25608 15.0833 5.88945 15.1667C6.30233 15.1667 6.63264 15.1667 7.04552 15.1667C7.70614 15.1667 8.36675 15.1667 9.02736 15.0833C10.6789 17.5 13.4865 19 16.5418 19C19.1843 19 21.579 17.9167 23.2305 16.0833H21.001C19.6797 17 18.1934 17.5 16.5418 17.5C14.2297 17.5 12.1653 16.5 10.7615 14.9167C11.1744 14.9167 11.5047 14.8333 11.9175 14.8333C13.6517 14.6667 15.5509 14.3333 17.4502 14C18.3585 13.8333 19.2669 13.6667 20.0926 13.4167C21.4139 13.0833 22.7351 12.75 23.9737 12.3333C24.5518 12.1667 25.1298 12 25.6253 11.75C25.7078 11.75 25.7904 11.6667 25.7904 11.6667C26.7813 11.3333 27.6897 10.9167 28.5154 10.5833C31.6534 9.16667 33.2223 7.66667 32.9746 6.25ZM24.2215 10.75C23.8086 10.9167 23.3957 11 22.9002 11.1667C22.157 11.4167 21.4139 11.5833 20.5881 11.8333C20.3404 11.9167 20.0926 12 19.8449 12C18.9366 12.25 17.9456 12.4167 16.9547 12.6667C14.3948 13.1667 11.835 13.5 9.52282 13.6667C9.02736 12.75 8.69706 11.75 8.53191 10.6667C8.44933 10.3333 8.44933 9.91667 8.44933 9.5C8.44933 9.08333 8.44933 8.66667 8.53191 8.33333C8.61448 7.75 8.77964 7.16667 8.94479 6.66667C8.94479 6.58333 9.02736 6.5 9.10994 6.33333C10.266 3.41667 13.1562 1.41667 16.3767 1.41667C18.6888 1.41667 20.7532 2.41667 22.157 4C22.5699 4.41667 22.9002 4.91667 23.148 5.41667C23.8086 6.58333 24.2215 8 24.2215 9.5C24.304 10 24.2215 10.4167 24.2215 10.75ZM27.8548 9.33333C27.1942 9.66667 26.5336 9.91667 25.7078 10.25C25.7078 10 25.7078 9.83333 25.7078 9.58333C25.7078 8.08333 25.3775 6.66667 24.7995 5.41667C25.2124 5.41667 25.5427 5.41667 25.9556 5.41667C26.3685 5.41667 26.6988 5.41667 27.1116 5.41667C30.6624 5.58333 31.4882 6.33333 31.5708 6.58333C31.5708 6.83333 30.9927 7.91667 27.8548 9.33333Z" fill="#1B1B1B"/>
</svg>
