<svg width="28" height="27" viewBox="0 0 28 27" fill="none" xmlns="http://www.w3.org/2000/svg">
<path d="M22.5409 26.4722C22.3221 26.4722 22.1049 26.405 21.9186 26.2738L14.8782 21.3162L11.1022 24.1368C10.806 24.3578 10.4243 24.4135 10.0805 24.2859C9.73702 24.158 9.47619 23.8626 9.38309 23.4964L7.48709 16.0373L0.712467 13.3481C0.285978 13.1787 0.00312914 12.7552 2.57885e-05 12.2811C-0.00307756 11.8071 0.274155 11.3795 0.698576 11.2042L26.4582 0.563544C26.5751 0.511998 26.6988 0.482236 26.8235 0.474259C26.8681 0.471497 26.9129 0.471497 26.9574 0.474105C27.2157 0.49006 27.4694 0.599289 27.6674 0.800872C27.688 0.821736 27.7075 0.84306 27.726 0.865305C27.89 1.05983 27.9802 1.29701 27.9971 1.53863C28.0013 1.59938 28.001 1.6609 27.9958 1.72242C27.9923 1.76629 27.9862 1.81001 27.9776 1.85343L23.6295 25.537C23.5596 25.9174 23.3102 26.2359 22.9656 26.3843C22.8289 26.4432 22.6845 26.4722 22.5409 26.4722ZM15.4964 18.9708L21.7677 23.3868L25.1509 4.95833L12.9315 17.1647L15.4668 18.9501C15.477 18.9567 15.4868 18.9637 15.4964 18.9708ZM10.2758 17.9888L11.1155 21.2918L12.9246 19.9404L10.5557 18.2722C10.4456 18.1948 10.3513 18.0985 10.2758 17.9888ZM4.15793 12.2518L8.80971 14.0981C9.14295 14.2304 9.39447 14.5212 9.4855 14.8793L10.0754 17.2003C10.1025 16.9326 10.2194 16.6807 10.4093 16.4909L22.0526 4.86014L4.15793 12.2518Z" fill="#434343"/>
</svg>
