<svg width="27" height="27" viewBox="0 0 27 27" fill="none" xmlns="http://www.w3.org/2000/svg">
<g clip-path="url(#clip0)">
<path d="M13.3071 13.006C15.0938 13.006 16.6409 12.3652 17.9052 11.1008C19.1692 9.83659 19.8103 8.28979 19.8103 6.5028C19.8103 4.71642 19.1694 3.16941 17.905 1.90482C16.6406 0.640845 15.0936 0 13.3071 0C11.5201 0 9.97325 0.640845 8.70907 1.90503C7.44489 3.16921 6.80383 4.71622 6.80383 6.5028C6.80383 8.28979 7.44489 9.8368 8.70907 11.101C9.97366 12.365 11.5207 13.006 13.3071 13.006ZM9.82802 3.02378C10.798 2.05375 11.936 1.58223 13.3071 1.58223C14.6779 1.58223 15.8161 2.05375 16.7863 3.02378C17.7563 3.994 18.228 5.13212 18.228 6.5028C18.228 7.87389 17.7563 9.01179 16.7863 9.98202C15.8161 10.9523 14.6779 11.4238 13.3071 11.4238C11.9364 11.4238 10.7985 10.952 9.82802 9.98202C8.8578 9.012 8.38607 7.87389 8.38607 6.5028C8.38607 5.13212 8.8578 3.994 9.82802 3.02378Z" fill="#434343"/>
<path d="M24.6865 20.762C24.65 20.2358 24.5763 19.6619 24.4677 19.0559C24.3581 18.4454 24.217 17.8682 24.0481 17.3406C23.8734 16.7953 23.6363 16.2569 23.3428 15.7409C23.0385 15.2053 22.6809 14.7389 22.2797 14.3552C21.86 13.9537 21.3463 13.6309 20.7522 13.3954C20.1602 13.1612 19.5041 13.0426 18.8023 13.0426C18.5267 13.0426 18.2601 13.1557 17.7453 13.4908C17.4285 13.6974 17.0579 13.9364 16.6443 14.2007C16.2906 14.426 15.8115 14.6372 15.2196 14.8283C14.6422 15.0152 14.056 15.1099 13.4771 15.1099C12.8987 15.1099 12.3124 15.0152 11.7346 14.8283C11.1434 14.6374 10.6641 14.4262 10.311 14.2009C9.90129 13.939 9.5305 13.7001 9.20895 13.4906C8.69458 13.1554 8.42802 13.0424 8.1524 13.0424C7.45038 13.0424 6.79449 13.1612 6.20267 13.3956C5.609 13.6307 5.09505 13.9535 4.67503 14.3554C4.27375 14.7393 3.91615 15.2055 3.6121 15.7409C3.31897 16.2569 3.08167 16.7951 2.90698 17.3408C2.73827 17.8684 2.59717 18.4454 2.48758 19.0559C2.37881 19.6611 2.30527 20.2352 2.26881 20.7626C2.23297 21.2782 2.21484 21.8148 2.21484 22.357C2.21484 23.7664 2.66288 24.9074 3.54639 25.7488C4.41898 26.5792 5.57336 27.0002 6.97762 27.0002H19.9783C21.3821 27.0002 22.5365 26.5792 23.4093 25.7488C24.293 24.908 24.7411 23.7666 24.7411 22.3568C24.7409 21.8127 24.7225 21.2761 24.6865 20.762ZM22.3184 24.6025C21.7418 25.1513 20.9763 25.418 19.9781 25.418H6.97762C5.97917 25.418 5.2137 25.1513 4.63733 24.6027C4.07188 24.0644 3.79708 23.3297 3.79708 22.357C3.79708 21.851 3.81377 21.3515 3.84714 20.872C3.87968 20.4015 3.94622 19.8846 4.04489 19.3354C4.14233 18.7931 4.26633 18.2841 4.41383 17.8233C4.55534 17.3814 4.74836 16.9439 4.98772 16.5224C5.21617 16.1207 5.47902 15.7761 5.76906 15.4984C6.04035 15.2387 6.3823 15.0261 6.78522 14.8666C7.15787 14.7191 7.57665 14.6384 8.03128 14.6262C8.08669 14.6557 8.18536 14.7119 8.34521 14.8162C8.67048 15.0281 9.04539 15.27 9.45985 15.5347C9.92704 15.8325 10.529 16.1016 11.2481 16.3337C11.9833 16.5714 12.7331 16.6921 13.4773 16.6921C14.2216 16.6921 14.9716 16.5714 15.7064 16.3339C16.4261 16.1014 17.0278 15.8325 17.4957 15.5343C17.9198 15.2632 18.2842 15.0283 18.6095 14.8162C18.7693 14.7121 18.868 14.6557 18.9234 14.6262C19.3782 14.6384 19.797 14.7191 20.1699 14.8666C20.5726 15.0261 20.9145 15.2389 21.1858 15.4984C21.4759 15.7759 21.7387 16.1205 21.9672 16.5226C22.2067 16.9439 22.4 17.3816 22.5413 17.823C22.689 18.2845 22.8132 18.7933 22.9104 19.3352C23.0089 19.8855 23.0756 20.4025 23.1082 20.8722V20.8726C23.1417 21.3503 23.1586 21.8496 23.1588 22.357C23.1586 23.3299 22.8838 24.0644 22.3184 24.6025Z" fill="#434343"/>
</g>
<defs>
<clipPath id="clip0">
<rect width="27" height="27" fill="white"/>
</clipPath>
</defs>
</svg>
